#N canvas 827 239 527 327 12;
#X obj 71 177 vline~;
#X obj 20 61 bang;
#X obj 20 21 inlet;
#X obj 71 217 outlet~;
#X obj 71 61 inlet;
#X obj 106 61 inlet;
#X obj 71 99 pack \$1 \$2;
#X msg 71 139 1 \$1 \, 0 \$2 \$1;
#X connect 0 0 3 0;
#X connect 1 0 6 0;
#X connect 2 0 1 0;
#X connect 4 0 6 0;
#X connect 5 0 6 1;
#X connect 6 0 7 0;
#X connect 7 0 0 0;
