#N canvas 827 239 527 327 12;
#X obj 106 156 delread4~ delay1-\$0;
#X obj 106 122 delwrite~ delay1-\$0 1000;
#X msg 308 88 \$1 20;
#X obj 308 122 line~;
#X obj 106 58 *~ 0.9;
#X obj 106 88 lop~ 800;
#X obj 168 198 throw~ delay1-\$0;
#X obj 106 22 catch~ delay1-\$0;
#X obj 168 52 inlet;
#X obj 213 65 inlet;
#X obj 308 58 inlet;
#X obj 27 22 inlet~;
#X obj 106 198 outlet~;
#X connect 0 0 6 0;
#X connect 0 0 12 0;
#X connect 2 0 3 0;
#X connect 3 0 0 0;
#X connect 4 0 5 0;
#X connect 5 0 1 0;
#X connect 7 0 4 0;
#X connect 8 0 4 1;
#X connect 9 0 5 1;
#X connect 10 0 2 0;
#X connect 11 0 4 0;
