#N canvas 1028 293 924 580 12;
#X obj 165 68 tgl 50 0 empty empty empty 0 -10 0 12 #fcfcfc #000000 #000000 0 1;
#X obj 153 415 tgl 50 0 empty empty empty 0 -10 0 12 #fcfcfc #000000 #000000 0 1;
#X obj 230 414 tgl 50 0 empty empty empty 0 -10 0 12 #fcfcfc #000000 #000000 0 1;
#X obj 309 414 tgl 50 0 empty empty empty 0 -10 0 12 #fcfcfc #000000 #000000 0 1;
#X obj 386 413 tgl 50 0 empty empty empty 0 -10 0 12 #fcfcfc #000000 #000000 0 1;
#X text 418 283 Whats wrong here? The bottom row only updates sometimes when the first row is changed.;
#X obj 243 226 pack 0 0 0 0;
#X obj 240 358 unpack 0 0 0 0;
#X obj 165 175 t b f;
#X obj 230 68 tgl 50 0 empty empty empty 0 -10 0 12 #fcfcfc #000000 #000000 0 1;
#X obj 230 175 t b f;
#X obj 299 68 tgl 50 0 empty empty empty 0 -10 0 12 #fcfcfc #000000 #000000 0 1;
#X obj 299 175 t b f;
#X obj 365 68 tgl 50 0 empty empty empty 0 -10 0 12 #fcfcfc #000000 #000000 0 1;
#X obj 365 175 t b f;
#X text 425 344 The pack object only outputs when a change / bang occurs on the first inlet. Thus \, each toggle needs to trigger a bang on the first inlet when changed. Accomplished with a "t b f" object.;
#X connect 0 0 8 0;
#X connect 6 0 7 0;
#X connect 7 0 1 0;
#X connect 7 1 2 0;
#X connect 7 2 3 0;
#X connect 7 3 4 0;
#X connect 8 0 6 0;
#X connect 8 1 6 0;
#X connect 9 0 10 0;
#X connect 10 0 6 0;
#X connect 10 1 6 1;
#X connect 11 0 12 0;
#X connect 12 0 6 0;
#X connect 12 1 6 2;
#X connect 13 0 14 0;
#X connect 14 0 6 0;
#X connect 14 1 6 3;
