#N canvas 1340 453 829 613 12;
#X obj 218 157 + 1;
#X obj 98 168 int;
#X obj 98 86 bng 50 250 50 0 empty empty empty 0 -10 0 12 #fcfcfc #000000 #000000;
#X obj 219 203 sel 7;
#X msg 218 256 0;
#X floatatom 92 251 5 0 0 0 - - - 0;
#X obj 487 153 + 1;
#X obj 398 170 int;
#X obj 398 88 bng 50 250 50 0 empty empty empty 0 -10 0 12 #fcfcfc #000000 #000000;
#X obj 489 197 sel 7;
#X msg 491 249 0;
#X floatatom 392 253 5 0 0 0 - - - 0;
#X text 33 323 This one works and resets the count;
#X text 339 323 This looks the same but wont reset;
#X text 339 358 The connection from +1 to sel 7 must be created after the connection from +1 to int \, to ensure the output from 0 is the last to arrive.;
#X obj 966 132 + 1;
#X obj 877 149 int;
#X obj 877 67 bng 50 250 50 0 empty empty empty 0 -10 0 12 #fcfcfc #000000 #000000;
#X obj 966 228 sel 7;
#X msg 968 280 0;
#X floatatom 871 232 5 0 0 0 - - - 0;
#X obj 966 176 t f f;
#X text 828 342 Better to add a t f f to make this order explicit;
#X connect 0 0 1 1;
#X connect 0 0 3 0;
#X connect 1 0 0 0;
#X connect 1 0 5 0;
#X connect 2 0 1 0;
#X connect 3 0 4 0;
#X connect 4 0 1 1;
#X connect 6 0 7 1;
#X connect 6 0 9 0;
#X connect 7 0 6 0;
#X connect 7 0 11 0;
#X connect 8 0 7 0;
#X connect 9 0 10 0;
#X connect 10 0 7 1;
#X connect 15 0 21 0;
#X connect 16 0 15 0;
#X connect 16 0 20 0;
#X connect 17 0 16 0;
#X connect 18 0 19 0;
#X connect 19 0 16 1;
#X connect 21 0 18 0;
#X connect 21 1 16 1;
