#N canvas 866 566 995 723 12;
#X obj 198 308 dac~ 1 2;
#X obj 215 150 osc~ 220;
#X obj 217 241 *~;
#X obj 345 155 tgl 50 0 empty empty empty 0 -10 0 12 #fcfcfc #000000 #000000 0 1;
#X text 291 273 No sound. Why?;
#X obj 216 189 *~ 0.1;
#X text 301 326 "* 0.1" should be "*~ 0.1" \, i.e. the version of * that works on signals;
#X connect 1 0 5 0;
#X connect 2 0 0 0;
#X connect 2 0 0 1;
#X connect 3 0 2 1;
#X connect 5 0 2 0;
