#N canvas 855 721 817 300 12;
#X obj 109 42 noise~;
#X obj 95 236 dac~ 1 2;
#X obj 109 66 *~ 0.1;
#X obj 182 42 tgl 50 0 empty empty empty 0 -10 0 12 #fcfcfc #000000 #000000 0 1;
#X obj 114 94 *~;
#X text 343 116 I made an abstraction and placed it in the same folder as the main patch. Why doesnt it work?;
#X obj 112 157 my_cool_abstraction;
#X text 346 166 The pd object creates a subpatch of that name \, to refer to an abstraction just use the abstraction name without "pd" preceding it;
#X connect 0 0 2 0;
#X connect 2 0 4 0;
#X connect 3 0 4 1;
#X connect 4 0 6 0;
#X connect 6 0 1 0;
#X connect 6 0 1 1;
