#N canvas 827 239 527 327 12;
#X obj 577 49 tgl 50 0 empty empty empty 0 -11 0 12 #fcfcfc #000000 #000000 0 1;
#X floatatom 720 100 5 1 240 0 - - - 0;
#X obj 577 250 hradio 20 1 0 16 empty empty empty 0 -8 0 10 #e4e4e4 #4d4d4d #373737 0;
#N canvas 733 172 450 300 16step 0;
#X obj 577 185 metro;
#X obj 577 215 int;
#X obj 627 215 + 1;
#X obj 577 254 mod 16;
#X obj 577 49 inlet;
#X obj 720 100 inlet;
#X obj 577 442 outlet;
#X obj 598 143 expr (60 / $f1) * 250;
#X connect 0 0 1 0;
#X connect 1 0 2 0;
#X connect 1 0 3 0;
#X connect 2 0 1 1;
#X connect 3 0 6 0;
#X connect 4 0 0 0;
#X connect 5 0 7 0;
#X connect 7 0 0 1;
#X restore 577 202 pd 16step;
#X obj 887 961 kick;
#X obj 1446 1090 snare;
#X obj 1419 480 hih;
#X obj 1366 802 bell;
#N canvas 0 50 450 300 seq 0;
#X obj 488 174 inlet;
#X obj 488 236 sel 0;
#X obj 511 260 inlet;
#X obj 488 286 spigot;
#X obj 488 373 outlet;
#X obj 576 260 inlet;
#X obj 553 286 spigot;
#X obj 641 260 inlet;
#X obj 618 286 spigot;
#X obj 706 260 inlet;
#X obj 683 286 spigot;
#X obj 774 260 inlet;
#X obj 751 286 spigot;
#X obj 839 260 inlet;
#X obj 816 286 spigot;
#X obj 904 260 inlet;
#X obj 881 286 spigot;
#X obj 969 260 inlet;
#X obj 946 286 spigot;
#X obj 1036 260 inlet;
#X obj 1013 286 spigot;
#X obj 1101 260 inlet;
#X obj 1078 286 spigot;
#X obj 1166 260 inlet;
#X obj 1143 286 spigot;
#X obj 1231 260 inlet;
#X obj 1208 286 spigot;
#X obj 1293 260 inlet;
#X obj 1270 286 spigot;
#X obj 1358 260 inlet;
#X obj 1335 286 spigot;
#X obj 1423 260 inlet;
#X obj 1400 286 spigot;
#X obj 1488 260 inlet;
#X obj 1465 286 spigot;
#X obj 553 236 sel 1;
#X obj 618 236 sel 2;
#X obj 683 236 sel 3;
#X obj 751 236 sel 4;
#X obj 816 236 sel 5;
#X obj 881 236 sel 6;
#X obj 946 236 sel 7;
#X obj 1013 236 sel 8;
#X obj 1078 236 sel 9;
#X obj 1143 236 sel 10;
#X obj 1208 236 sel 11;
#X obj 1270 236 sel 12;
#X obj 1335 236 sel 13;
#X obj 1400 236 sel 14;
#X obj 1465 236 sel 15;
#X connect 0 0 1 0;
#X connect 0 0 35 0;
#X connect 0 0 36 0;
#X connect 0 0 37 0;
#X connect 0 0 38 0;
#X connect 0 0 39 0;
#X connect 0 0 40 0;
#X connect 0 0 41 0;
#X connect 0 0 42 0;
#X connect 0 0 43 0;
#X connect 0 0 44 0;
#X connect 0 0 45 0;
#X connect 0 0 46 0;
#X connect 0 0 47 0;
#X connect 0 0 48 0;
#X connect 0 0 49 0;
#X connect 1 0 3 0;
#X connect 2 0 3 1;
#X connect 3 0 4 0;
#X connect 5 0 6 1;
#X connect 6 0 4 0;
#X connect 7 0 8 1;
#X connect 8 0 4 0;
#X connect 9 0 10 1;
#X connect 10 0 4 0;
#X connect 11 0 12 1;
#X connect 12 0 4 0;
#X connect 13 0 14 1;
#X connect 14 0 4 0;
#X connect 15 0 16 1;
#X connect 16 0 4 0;
#X connect 17 0 18 1;
#X connect 18 0 4 0;
#X connect 19 0 20 1;
#X connect 20 0 4 0;
#X connect 21 0 22 1;
#X connect 22 0 4 0;
#X connect 23 0 24 1;
#X connect 24 0 4 0;
#X connect 25 0 26 1;
#X connect 26 0 4 0;
#X connect 27 0 28 1;
#X connect 28 0 4 0;
#X connect 29 0 30 1;
#X connect 30 0 4 0;
#X connect 31 0 32 1;
#X connect 32 0 4 0;
#X connect 33 0 34 1;
#X connect 34 0 4 0;
#X connect 35 0 6 0;
#X connect 36 0 8 0;
#X connect 37 0 10 0;
#X connect 38 0 12 0;
#X connect 39 0 14 0;
#X connect 40 0 16 0;
#X connect 41 0 18 0;
#X connect 42 0 20 0;
#X connect 43 0 22 0;
#X connect 44 0 24 0;
#X connect 45 0 26 0;
#X connect 46 0 28 0;
#X connect 47 0 30 0;
#X connect 48 0 32 0;
#X connect 49 0 34 0;
#X restore 1419 300 pd seq;
#X obj 1436 221 tgl 25 0 empty empty empty 17 7 0 10 #e4e4e4 #4d4d4d #373737 0 1;
#X obj 1465 221 tgl 26 0 empty empty empty 17 7 0 10 #e4e4e4 #4d4d4d #373737 0 1;
#X obj 1494 221 tgl 25 0 empty empty empty 17 7 0 10 #e4e4e4 #4d4d4d #373737 0 1;
#X obj 1522 221 tgl 26 0 empty empty empty 17 7 0 10 #e4e4e4 #4d4d4d #373737 0 1;
#X obj 1550 221 tgl 25 0 empty empty empty 17 7 0 10 #e4e4e4 #4d4d4d #373737 0 1;
#X obj 1579 221 tgl 26 0 empty empty empty 17 7 0 10 #e4e4e4 #4d4d4d #373737 0 1;
#X obj 1608 221 tgl 25 0 empty empty empty 17 7 0 10 #e4e4e4 #4d4d4d #373737 0 1;
#X obj 1636 221 tgl 26 0 empty empty empty 17 7 0 10 #e4e4e4 #4d4d4d #373737 0 1;
#X obj 1665 221 tgl 25 0 empty empty empty 17 7 0 10 #e4e4e4 #4d4d4d #373737 0 1;
#X obj 1694 221 tgl 26 0 empty empty empty 17 7 0 10 #e4e4e4 #4d4d4d #373737 0 1;
#X obj 1723 221 tgl 25 0 empty empty empty 17 7 0 10 #e4e4e4 #4d4d4d #373737 0 1;
#X obj 1751 221 tgl 26 0 empty empty empty 17 7 0 10 #e4e4e4 #4d4d4d #373737 0 1;
#X obj 1780 221 tgl 25 0 empty empty empty 17 7 0 10 #e4e4e4 #4d4d4d #373737 0 1;
#X obj 1809 221 tgl 26 0 empty empty empty 17 7 0 10 #e4e4e4 #4d4d4d #373737 0 1;
#X obj 1838 221 tgl 25 0 empty empty empty 17 7 0 10 #e4e4e4 #4d4d4d #373737 0 1;
#X obj 1866 221 tgl 26 0 empty empty empty 17 7 0 10 #e4e4e4 #4d4d4d #373737 0 1;
#N canvas 0 50 450 300 seq 0;
#X obj 488 174 inlet;
#X obj 488 236 sel 0;
#X obj 511 260 inlet;
#X obj 488 286 spigot;
#X obj 488 373 outlet;
#X obj 576 260 inlet;
#X obj 553 286 spigot;
#X obj 641 260 inlet;
#X obj 618 286 spigot;
#X obj 706 260 inlet;
#X obj 683 286 spigot;
#X obj 774 260 inlet;
#X obj 751 286 spigot;
#X obj 839 260 inlet;
#X obj 816 286 spigot;
#X obj 904 260 inlet;
#X obj 881 286 spigot;
#X obj 969 260 inlet;
#X obj 946 286 spigot;
#X obj 1036 260 inlet;
#X obj 1013 286 spigot;
#X obj 1101 260 inlet;
#X obj 1078 286 spigot;
#X obj 1166 260 inlet;
#X obj 1143 286 spigot;
#X obj 1231 260 inlet;
#X obj 1208 286 spigot;
#X obj 1293 260 inlet;
#X obj 1270 286 spigot;
#X obj 1358 260 inlet;
#X obj 1335 286 spigot;
#X obj 1423 260 inlet;
#X obj 1400 286 spigot;
#X obj 1488 260 inlet;
#X obj 1465 286 spigot;
#X obj 553 236 sel 1;
#X obj 618 236 sel 2;
#X obj 683 236 sel 3;
#X obj 751 236 sel 4;
#X obj 816 236 sel 5;
#X obj 881 236 sel 6;
#X obj 946 236 sel 7;
#X obj 1013 236 sel 8;
#X obj 1078 236 sel 9;
#X obj 1143 236 sel 10;
#X obj 1208 236 sel 11;
#X obj 1270 236 sel 12;
#X obj 1335 236 sel 13;
#X obj 1400 236 sel 14;
#X obj 1465 236 sel 15;
#X connect 0 0 1 0;
#X connect 0 0 35 0;
#X connect 0 0 36 0;
#X connect 0 0 37 0;
#X connect 0 0 38 0;
#X connect 0 0 39 0;
#X connect 0 0 40 0;
#X connect 0 0 41 0;
#X connect 0 0 42 0;
#X connect 0 0 43 0;
#X connect 0 0 44 0;
#X connect 0 0 45 0;
#X connect 0 0 46 0;
#X connect 0 0 47 0;
#X connect 0 0 48 0;
#X connect 0 0 49 0;
#X connect 1 0 3 0;
#X connect 2 0 3 1;
#X connect 3 0 4 0;
#X connect 5 0 6 1;
#X connect 6 0 4 0;
#X connect 7 0 8 1;
#X connect 8 0 4 0;
#X connect 9 0 10 1;
#X connect 10 0 4 0;
#X connect 11 0 12 1;
#X connect 12 0 4 0;
#X connect 13 0 14 1;
#X connect 14 0 4 0;
#X connect 15 0 16 1;
#X connect 16 0 4 0;
#X connect 17 0 18 1;
#X connect 18 0 4 0;
#X connect 19 0 20 1;
#X connect 20 0 4 0;
#X connect 21 0 22 1;
#X connect 22 0 4 0;
#X connect 23 0 24 1;
#X connect 24 0 4 0;
#X connect 25 0 26 1;
#X connect 26 0 4 0;
#X connect 27 0 28 1;
#X connect 28 0 4 0;
#X connect 29 0 30 1;
#X connect 30 0 4 0;
#X connect 31 0 32 1;
#X connect 32 0 4 0;
#X connect 33 0 34 1;
#X connect 34 0 4 0;
#X connect 35 0 6 0;
#X connect 36 0 8 0;
#X connect 37 0 10 0;
#X connect 38 0 12 0;
#X connect 39 0 14 0;
#X connect 40 0 16 0;
#X connect 41 0 18 0;
#X connect 42 0 20 0;
#X connect 43 0 22 0;
#X connect 44 0 24 0;
#X connect 45 0 26 0;
#X connect 46 0 28 0;
#X connect 47 0 30 0;
#X connect 48 0 32 0;
#X connect 49 0 34 0;
#X restore 1367 607 pd seq;
#X obj 1384 528 tgl 25 0 empty empty empty 17 7 0 10 #e4e4e4 #4d4d4d #373737 0 1;
#X obj 1413 528 tgl 26 0 empty empty empty 17 7 0 10 #e4e4e4 #4d4d4d #373737 0 1;
#X obj 1442 528 tgl 25 0 empty empty empty 17 7 0 10 #e4e4e4 #4d4d4d #373737 0 1;
#X obj 1470 528 tgl 26 0 empty empty empty 17 7 0 10 #e4e4e4 #4d4d4d #373737 0 1;
#X obj 1498 528 tgl 25 0 empty empty empty 17 7 0 10 #e4e4e4 #4d4d4d #373737 0 1;
#X obj 1527 528 tgl 26 0 empty empty empty 17 7 0 10 #e4e4e4 #4d4d4d #373737 0 1;
#X obj 1556 528 tgl 25 0 empty empty empty 17 7 0 10 #e4e4e4 #4d4d4d #373737 0 1;
#X obj 1584 528 tgl 26 0 empty empty empty 17 7 0 10 #e4e4e4 #4d4d4d #373737 0 1;
#X obj 1613 528 tgl 25 0 empty empty empty 17 7 0 10 #e4e4e4 #4d4d4d #373737 0 1;
#X obj 1642 528 tgl 26 0 empty empty empty 17 7 0 10 #e4e4e4 #4d4d4d #373737 0 1;
#X obj 1671 528 tgl 25 0 empty empty empty 17 7 0 10 #e4e4e4 #4d4d4d #373737 0 1;
#X obj 1699 528 tgl 26 0 empty empty empty 17 7 0 10 #e4e4e4 #4d4d4d #373737 0 1;
#X obj 1728 528 tgl 25 0 empty empty empty 17 7 0 10 #e4e4e4 #4d4d4d #373737 0 1;
#X obj 1757 528 tgl 26 0 empty empty empty 17 7 0 10 #e4e4e4 #4d4d4d #373737 0 1;
#X obj 1786 528 tgl 25 0 empty empty empty 17 7 0 10 #e4e4e4 #4d4d4d #373737 0 1;
#X obj 1814 528 tgl 26 0 empty empty empty 17 7 0 10 #e4e4e4 #4d4d4d #373737 0 1;
#N canvas 0 50 450 300 seq 0;
#X obj 488 174 inlet;
#X obj 488 236 sel 0;
#X obj 511 260 inlet;
#X obj 488 286 spigot;
#X obj 488 373 outlet;
#X obj 576 260 inlet;
#X obj 553 286 spigot;
#X obj 641 260 inlet;
#X obj 618 286 spigot;
#X obj 706 260 inlet;
#X obj 683 286 spigot;
#X obj 774 260 inlet;
#X obj 751 286 spigot;
#X obj 839 260 inlet;
#X obj 816 286 spigot;
#X obj 904 260 inlet;
#X obj 881 286 spigot;
#X obj 969 260 inlet;
#X obj 946 286 spigot;
#X obj 1036 260 inlet;
#X obj 1013 286 spigot;
#X obj 1101 260 inlet;
#X obj 1078 286 spigot;
#X obj 1166 260 inlet;
#X obj 1143 286 spigot;
#X obj 1231 260 inlet;
#X obj 1208 286 spigot;
#X obj 1293 260 inlet;
#X obj 1270 286 spigot;
#X obj 1358 260 inlet;
#X obj 1335 286 spigot;
#X obj 1423 260 inlet;
#X obj 1400 286 spigot;
#X obj 1488 260 inlet;
#X obj 1465 286 spigot;
#X obj 553 236 sel 1;
#X obj 618 236 sel 2;
#X obj 683 236 sel 3;
#X obj 751 236 sel 4;
#X obj 816 236 sel 5;
#X obj 881 236 sel 6;
#X obj 946 236 sel 7;
#X obj 1013 236 sel 8;
#X obj 1078 236 sel 9;
#X obj 1143 236 sel 10;
#X obj 1208 236 sel 11;
#X obj 1270 236 sel 12;
#X obj 1335 236 sel 13;
#X obj 1400 236 sel 14;
#X obj 1465 236 sel 15;
#X connect 0 0 1 0;
#X connect 0 0 35 0;
#X connect 0 0 36 0;
#X connect 0 0 37 0;
#X connect 0 0 38 0;
#X connect 0 0 39 0;
#X connect 0 0 40 0;
#X connect 0 0 41 0;
#X connect 0 0 42 0;
#X connect 0 0 43 0;
#X connect 0 0 44 0;
#X connect 0 0 45 0;
#X connect 0 0 46 0;
#X connect 0 0 47 0;
#X connect 0 0 48 0;
#X connect 0 0 49 0;
#X connect 1 0 3 0;
#X connect 2 0 3 1;
#X connect 3 0 4 0;
#X connect 5 0 6 1;
#X connect 6 0 4 0;
#X connect 7 0 8 1;
#X connect 8 0 4 0;
#X connect 9 0 10 1;
#X connect 10 0 4 0;
#X connect 11 0 12 1;
#X connect 12 0 4 0;
#X connect 13 0 14 1;
#X connect 14 0 4 0;
#X connect 15 0 16 1;
#X connect 16 0 4 0;
#X connect 17 0 18 1;
#X connect 18 0 4 0;
#X connect 19 0 20 1;
#X connect 20 0 4 0;
#X connect 21 0 22 1;
#X connect 22 0 4 0;
#X connect 23 0 24 1;
#X connect 24 0 4 0;
#X connect 25 0 26 1;
#X connect 26 0 4 0;
#X connect 27 0 28 1;
#X connect 28 0 4 0;
#X connect 29 0 30 1;
#X connect 30 0 4 0;
#X connect 31 0 32 1;
#X connect 32 0 4 0;
#X connect 33 0 34 1;
#X connect 34 0 4 0;
#X connect 35 0 6 0;
#X connect 36 0 8 0;
#X connect 37 0 10 0;
#X connect 38 0 12 0;
#X connect 39 0 14 0;
#X connect 40 0 16 0;
#X connect 41 0 18 0;
#X connect 42 0 20 0;
#X connect 43 0 22 0;
#X connect 44 0 24 0;
#X connect 45 0 26 0;
#X connect 46 0 28 0;
#X connect 47 0 30 0;
#X connect 48 0 32 0;
#X connect 49 0 34 0;
#X restore 1446 892 pd seq;
#X obj 1463 813 tgl 25 0 empty empty empty 17 7 0 10 #e4e4e4 #4d4d4d #373737 0 1;
#X obj 1492 813 tgl 26 0 empty empty empty 17 7 0 10 #e4e4e4 #4d4d4d #373737 0 1;
#X obj 1521 813 tgl 25 0 empty empty empty 17 7 0 10 #e4e4e4 #4d4d4d #373737 0 1;
#X obj 1549 813 tgl 26 0 empty empty empty 17 7 0 10 #e4e4e4 #4d4d4d #373737 0 1;
#X obj 1577 813 tgl 25 0 empty empty empty 17 7 0 10 #e4e4e4 #4d4d4d #373737 0 1;
#X obj 1606 813 tgl 26 0 empty empty empty 17 7 0 10 #e4e4e4 #4d4d4d #373737 0 1;
#X obj 1635 813 tgl 25 0 empty empty empty 17 7 0 10 #e4e4e4 #4d4d4d #373737 0 1;
#X obj 1663 813 tgl 26 0 empty empty empty 17 7 0 10 #e4e4e4 #4d4d4d #373737 0 1;
#X obj 1692 813 tgl 25 0 empty empty empty 17 7 0 10 #e4e4e4 #4d4d4d #373737 0 1;
#X obj 1721 813 tgl 26 0 empty empty empty 17 7 0 10 #e4e4e4 #4d4d4d #373737 0 1;
#X obj 1750 813 tgl 25 0 empty empty empty 17 7 0 10 #e4e4e4 #4d4d4d #373737 0 1;
#X obj 1778 813 tgl 26 0 empty empty empty 17 7 0 10 #e4e4e4 #4d4d4d #373737 0 1;
#X obj 1807 813 tgl 25 0 empty empty empty 17 7 0 10 #e4e4e4 #4d4d4d #373737 0 1;
#X obj 1836 813 tgl 26 0 empty empty empty 17 7 0 10 #e4e4e4 #4d4d4d #373737 0 1;
#X obj 1865 813 tgl 25 0 empty empty empty 17 7 0 10 #e4e4e4 #4d4d4d #373737 0 1;
#X obj 1893 813 tgl 26 0 empty empty empty 17 7 0 10 #e4e4e4 #4d4d4d #373737 0 1;
#N canvas 0 50 450 300 seq 0;
#X obj 488 174 inlet;
#X obj 488 236 sel 0;
#X obj 511 260 inlet;
#X obj 488 286 spigot;
#X obj 488 373 outlet;
#X obj 576 260 inlet;
#X obj 553 286 spigot;
#X obj 641 260 inlet;
#X obj 618 286 spigot;
#X obj 706 260 inlet;
#X obj 683 286 spigot;
#X obj 774 260 inlet;
#X obj 751 286 spigot;
#X obj 839 260 inlet;
#X obj 816 286 spigot;
#X obj 904 260 inlet;
#X obj 881 286 spigot;
#X obj 969 260 inlet;
#X obj 946 286 spigot;
#X obj 1036 260 inlet;
#X obj 1013 286 spigot;
#X obj 1101 260 inlet;
#X obj 1078 286 spigot;
#X obj 1166 260 inlet;
#X obj 1143 286 spigot;
#X obj 1231 260 inlet;
#X obj 1208 286 spigot;
#X obj 1293 260 inlet;
#X obj 1270 286 spigot;
#X obj 1358 260 inlet;
#X obj 1335 286 spigot;
#X obj 1423 260 inlet;
#X obj 1400 286 spigot;
#X obj 1488 260 inlet;
#X obj 1465 286 spigot;
#X obj 553 236 sel 1;
#X obj 618 236 sel 2;
#X obj 683 236 sel 3;
#X obj 751 236 sel 4;
#X obj 816 236 sel 5;
#X obj 881 236 sel 6;
#X obj 946 236 sel 7;
#X obj 1013 236 sel 8;
#X obj 1078 236 sel 9;
#X obj 1143 236 sel 10;
#X obj 1208 236 sel 11;
#X obj 1270 236 sel 12;
#X obj 1335 236 sel 13;
#X obj 1400 236 sel 14;
#X obj 1465 236 sel 15;
#X connect 0 0 1 0;
#X connect 0 0 35 0;
#X connect 0 0 36 0;
#X connect 0 0 37 0;
#X connect 0 0 38 0;
#X connect 0 0 39 0;
#X connect 0 0 40 0;
#X connect 0 0 41 0;
#X connect 0 0 42 0;
#X connect 0 0 43 0;
#X connect 0 0 44 0;
#X connect 0 0 45 0;
#X connect 0 0 46 0;
#X connect 0 0 47 0;
#X connect 0 0 48 0;
#X connect 0 0 49 0;
#X connect 1 0 3 0;
#X connect 2 0 3 1;
#X connect 3 0 4 0;
#X connect 5 0 6 1;
#X connect 6 0 4 0;
#X connect 7 0 8 1;
#X connect 8 0 4 0;
#X connect 9 0 10 1;
#X connect 10 0 4 0;
#X connect 11 0 12 1;
#X connect 12 0 4 0;
#X connect 13 0 14 1;
#X connect 14 0 4 0;
#X connect 15 0 16 1;
#X connect 16 0 4 0;
#X connect 17 0 18 1;
#X connect 18 0 4 0;
#X connect 19 0 20 1;
#X connect 20 0 4 0;
#X connect 21 0 22 1;
#X connect 22 0 4 0;
#X connect 23 0 24 1;
#X connect 24 0 4 0;
#X connect 25 0 26 1;
#X connect 26 0 4 0;
#X connect 27 0 28 1;
#X connect 28 0 4 0;
#X connect 29 0 30 1;
#X connect 30 0 4 0;
#X connect 31 0 32 1;
#X connect 32 0 4 0;
#X connect 33 0 34 1;
#X connect 34 0 4 0;
#X connect 35 0 6 0;
#X connect 36 0 8 0;
#X connect 37 0 10 0;
#X connect 38 0 12 0;
#X connect 39 0 14 0;
#X connect 40 0 16 0;
#X connect 41 0 18 0;
#X connect 42 0 20 0;
#X connect 43 0 22 0;
#X connect 44 0 24 0;
#X connect 45 0 26 0;
#X connect 46 0 28 0;
#X connect 47 0 30 0;
#X connect 48 0 32 0;
#X connect 49 0 34 0;
#X restore 887 762 pd seq;
#X obj 904 683 tgl 25 0 empty empty empty 17 7 0 10 #e4e4e4 #4d4d4d #373737 0 1;
#X obj 933 683 tgl 26 0 empty empty empty 17 7 0 10 #e4e4e4 #4d4d4d #373737 0 1;
#X obj 962 683 tgl 25 0 empty empty empty 17 7 0 10 #e4e4e4 #4d4d4d #373737 0 1;
#X obj 990 683 tgl 26 0 empty empty empty 17 7 0 10 #e4e4e4 #4d4d4d #373737 0 1;
#X obj 1018 683 tgl 25 0 empty empty empty 17 7 0 10 #e4e4e4 #4d4d4d #373737 0 1;
#X obj 1047 683 tgl 26 0 empty empty empty 17 7 0 10 #e4e4e4 #4d4d4d #373737 0 1;
#X obj 1076 683 tgl 25 0 empty empty empty 17 7 0 10 #e4e4e4 #4d4d4d #373737 0 1;
#X obj 1104 683 tgl 26 0 empty empty empty 17 7 0 10 #e4e4e4 #4d4d4d #373737 0 1;
#X obj 1133 683 tgl 25 0 empty empty empty 17 7 0 10 #e4e4e4 #4d4d4d #373737 0 1;
#X obj 1162 683 tgl 26 0 empty empty empty 17 7 0 10 #e4e4e4 #4d4d4d #373737 0 1;
#X obj 1191 683 tgl 25 0 empty empty empty 17 7 0 10 #e4e4e4 #4d4d4d #373737 0 1;
#X obj 1219 683 tgl 26 0 empty empty empty 17 7 0 10 #e4e4e4 #4d4d4d #373737 0 1;
#X obj 1248 683 tgl 25 0 empty empty empty 17 7 0 10 #e4e4e4 #4d4d4d #373737 0 1;
#X obj 1277 683 tgl 26 0 empty empty empty 17 7 0 10 #e4e4e4 #4d4d4d #373737 0 1;
#X obj 1306 683 tgl 25 0 empty empty empty 17 7 0 10 #e4e4e4 #4d4d4d #373737 0 1;
#X obj 1334 683 tgl 26 0 empty empty empty 17 7 0 10 #e4e4e4 #4d4d4d #373737 0 1;
#X obj 1444 340 vsl 18 128 0 500 0 0 empty empty a 0 -9 0 10 #e4e4e4 #4d4d4d #373737 0 1;
#X obj 1471 340 vsl 17 128 0 500 0 0 empty empty r 0 -9 0 10 #e4e4e4 #4d4d4d #373737 0 1;
#X obj 584 846 *~;
#X obj 626 695 vsl 17 128 0 1 0 0 empty empty empty 0 -9 0 10 #e4e4e4 #4d4d4d #373737 0 1;
#X obj 584 913 dac~;
#X obj 905 813 vsl 18 128 0 500 0 0 empty empty a 0 -9 0 10 #e4e4e4 #4d4d4d #373737 0 1;
#X obj 933 813 vsl 17 128 0 500 0 0 empty empty r 0 -9 0 10 #e4e4e4 #4d4d4d #373737 0 1;
#X obj 1419 507 s~ hh;
#X obj 515 779 r~ hh;
#X obj 551 737 r~ kick;
#X obj 515 704 r~ snare;
#X obj 438 779 r~ bell;
#X obj 887 995 s~ kick;
#X obj 1446 1126 s~ snare;
#X obj 1463 950 vsl 18 128 0 500 0 0 empty empty a 0 -9 0 10 #e4e4e4 #4d4d4d #373737 0 1;
#X obj 1490 950 vsl 17 128 0 500 0 0 empty empty r 0 -9 0 10 #e4e4e4 #4d4d4d #373737 0 1;
#X obj 1517 950 vsl 18 128 0 500 0 0 empty empty a 0 -9 0 10 #e4e4e4 #4d4d4d #373737 0 1;
#X obj 1544 950 vsl 17 128 0 500 0 0 empty empty r 0 -9 0 10 #e4e4e4 #4d4d4d #373737 0 1;
#X obj 1384 657 vsl 18 128 0 500 0 0 empty empty a 0 -9 0 10 #e4e4e4 #4d4d4d #373737 0 1;
#X obj 1411 657 vsl 17 128 0 500 0 0 empty empty r 0 -9 0 10 #e4e4e4 #4d4d4d #373737 0 1;
#X obj 1366 838 s~ bell;
#X connect 0 0 3 0;
#X connect 1 0 3 1;
#X connect 2 0 8 0;
#X connect 2 0 59 0;
#X connect 2 0 25 0;
#X connect 2 0 42 0;
#X connect 3 0 2 0;
#X connect 4 0 88 0;
#X connect 5 0 89 0;
#X connect 6 0 83 0;
#X connect 7 0 96 0;
#X connect 8 0 6 0;
#X connect 9 0 8 1;
#X connect 10 0 8 2;
#X connect 11 0 8 3;
#X connect 12 0 8 4;
#X connect 13 0 8 5;
#X connect 14 0 8 6;
#X connect 15 0 8 7;
#X connect 16 0 8 8;
#X connect 17 0 8 9;
#X connect 18 0 8 10;
#X connect 19 0 8 11;
#X connect 20 0 8 12;
#X connect 21 0 8 13;
#X connect 22 0 8 14;
#X connect 23 0 8 15;
#X connect 24 0 8 16;
#X connect 25 0 7 0;
#X connect 26 0 25 1;
#X connect 27 0 25 2;
#X connect 28 0 25 3;
#X connect 29 0 25 4;
#X connect 30 0 25 5;
#X connect 31 0 25 6;
#X connect 32 0 25 7;
#X connect 33 0 25 8;
#X connect 34 0 25 9;
#X connect 35 0 25 10;
#X connect 36 0 25 11;
#X connect 37 0 25 12;
#X connect 38 0 25 13;
#X connect 39 0 25 14;
#X connect 40 0 25 15;
#X connect 41 0 25 16;
#X connect 42 0 5 0;
#X connect 43 0 42 1;
#X connect 44 0 42 2;
#X connect 45 0 42 3;
#X connect 46 0 42 4;
#X connect 47 0 42 5;
#X connect 48 0 42 6;
#X connect 49 0 42 7;
#X connect 50 0 42 8;
#X connect 51 0 42 9;
#X connect 52 0 42 10;
#X connect 53 0 42 11;
#X connect 54 0 42 12;
#X connect 55 0 42 13;
#X connect 56 0 42 14;
#X connect 57 0 42 15;
#X connect 58 0 42 16;
#X connect 59 0 4 0;
#X connect 60 0 59 1;
#X connect 61 0 59 2;
#X connect 62 0 59 3;
#X connect 63 0 59 4;
#X connect 64 0 59 5;
#X connect 65 0 59 6;
#X connect 66 0 59 7;
#X connect 67 0 59 8;
#X connect 68 0 59 9;
#X connect 69 0 59 10;
#X connect 70 0 59 11;
#X connect 71 0 59 12;
#X connect 72 0 59 13;
#X connect 73 0 59 14;
#X connect 74 0 59 15;
#X connect 75 0 59 16;
#X connect 76 0 6 1;
#X connect 77 0 6 2;
#X connect 78 0 80 0;
#X connect 78 0 80 1;
#X connect 79 0 78 1;
#X connect 81 0 4 1;
#X connect 82 0 4 2;
#X connect 84 0 78 0;
#X connect 85 0 78 0;
#X connect 86 0 78 0;
#X connect 87 0 78 0;
#X connect 90 0 5 1;
#X connect 91 0 5 2;
#X connect 92 0 5 3;
#X connect 93 0 5 4;
#X connect 94 0 7 1;
#X connect 95 0 7 2;
