#N canvas 827 239 527 327 12;
#X msg 217 159 36;
#X obj 217 190 mtof;
#X msg 255 159 39;
#X msg 294 159 41;
#X msg 332 159 43;
#X msg 371 159 46;
#X obj 217 127 sel 0 1 2 3 4;
#X obj 217 97 random 5;
#X obj 217 357 s note;
#X obj 217 62 metro 300;
#X obj 219 16 tgl 21 0 empty empty empty 0 -11 0 12 #fcfcfc #000000 #000000 0 1;
#X obj 217 225 * 1;
#X obj 34 783 dac~;
#X obj 34 215 r note;
#X obj 58 248 bang;
#X obj 58 277 random 100;
#X obj 58 307 + 20;
#X obj 58 337 / 127;
#X obj 34 367 pack 0 0;
#X obj 34 401 poly 6 1;
#X obj 34 435 pack 0 0 0;
#X obj 34 465 route 1 2 3 4 5 6;
#X obj 29 167 s ks-div;
#X obj 94 167 s ks-filt;
#X obj 33 26 vsl 17 128 0 1 0 0 empty empty div 0 -9 0 10 #e4e4e4 #4d4d4d #373737 0 1;
#X obj 98 26 vsl 17 128 20 20000 1 0 empty empty filt 0 -9 0 10 #e4e4e4 #4d4d4d #373737 0 1;
#X obj 48 538 r ks-div;
#X obj 63 560 r ks-filt;
#X obj 132 538 r ks-div;
#X obj 147 560 r ks-filt;
#X obj 217 538 r ks-div;
#X obj 232 560 r ks-filt;
#X obj 301 538 r ks-div;
#X obj 316 560 r ks-filt;
#X obj 387 538 r ks-div;
#X obj 402 560 r ks-filt;
#X obj 471 538 r ks-div;
#X obj 486 560 r ks-filt;
#X obj 34 585 ks-voice;
#X obj 118 585 ks-voice;
#X obj 203 585 ks-voice;
#X obj 287 585 ks-voice;
#X obj 373 585 ks-voice;
#X obj 457 585 ks-voice;
#X obj 452 81 + 20;
#X obj 452 47 random 1000;
#X obj 257 258 tgl 21 0 empty empty empty 0 -11 0 12 #fcfcfc #000000 #000000 0 1;
#X obj 255 314 mtof;
#X obj 255 287 else/midi seinfeld2.mid;
#X obj 625 424 vsl 17 128 0 1 0 0 empty empty feedback[0-1] 0 -9 0 10 #e4e4e4 #4d4d4d #373737 0 1;
#X obj 728 424 vsl 17 128 20 20000 1 0 empty empty lop[20-20k] 0 -9 0 10 #e4e4e4 #4d4d4d #373737 0 1;
#X obj -42 667 *~ 1;
#X obj 34 699 reverb01;
#X obj -23 724 *~ 1;
#X connect 0 0 1 0;
#X connect 1 0 11 0;
#X connect 2 0 1 0;
#X connect 3 0 1 0;
#X connect 4 0 1 0;
#X connect 5 0 1 0;
#X connect 6 0 0 0;
#X connect 6 1 2 0;
#X connect 6 2 3 0;
#X connect 6 3 4 0;
#X connect 6 4 5 0;
#X connect 7 0 6 0;
#X connect 9 0 7 0;
#X connect 9 0 45 0;
#X connect 10 0 9 0;
#X connect 11 0 8 0;
#X connect 13 0 18 0;
#X connect 13 0 14 0;
#X connect 14 0 15 0;
#X connect 15 0 16 0;
#X connect 16 0 17 0;
#X connect 17 0 18 1;
#X connect 18 0 19 0;
#X connect 19 0 20 0;
#X connect 19 1 20 1;
#X connect 19 2 20 2;
#X connect 20 0 21 0;
#X connect 21 0 38 0;
#X connect 21 1 39 0;
#X connect 21 2 40 0;
#X connect 21 3 41 0;
#X connect 21 4 42 0;
#X connect 21 5 43 0;
#X connect 24 0 22 0;
#X connect 25 0 23 0;
#X connect 26 0 38 1;
#X connect 27 0 38 2;
#X connect 28 0 39 1;
#X connect 29 0 39 2;
#X connect 30 0 40 1;
#X connect 31 0 40 2;
#X connect 32 0 41 1;
#X connect 33 0 41 2;
#X connect 34 0 42 1;
#X connect 35 0 42 2;
#X connect 36 0 43 1;
#X connect 37 0 43 2;
#X connect 38 0 51 0;
#X connect 39 0 51 0;
#X connect 40 0 51 0;
#X connect 41 0 51 0;
#X connect 42 0 51 0;
#X connect 43 0 51 0;
#X connect 44 0 9 1;
#X connect 45 0 44 0;
#X connect 46 0 48 0;
#X connect 47 0 8 0;
#X connect 48 0 47 0;
#X connect 49 0 52 1;
#X connect 50 0 52 2;
#X connect 51 0 52 0;
#X connect 52 0 12 0;
#X connect 52 0 12 1;
#X connect 53 0 12 0;
#X connect 53 0 12 1;
