#N canvas 827 239 527 327 12;
#X obj 24 93 noise~;
#X obj 89 150 *~;
#X obj 89 215 delwrite~ karplus1-\$0 1000;
#X obj 175 118 *~ 0.9;
#X obj 135 435 throw~ karplus1-\$0;
#X obj 175 84 catch~ karplus1-\$0;
#X obj 100 84 line~;
#X obj 175 150 lop~ 800;
#X obj 91 399 delread~ karplus1-\$0;
#X obj 91 302 t b f;
#X msg 64 334 1000;
#X obj 91 367 /;
#X obj 24 15 inlet;
#X obj 234 118 inlet;
#X obj 24 47 s note-\$0;
#X obj 100 15 r note-\$0;
#X obj 91 266 r note-\$0;
#X obj 264 150 inlet;
#X obj 91 482 outlet~;
#X msg 100 47 1 0 \, 0 10;
#X obj 24 118 4pole 2000;
#X connect 0 0 20 0;
#X connect 1 0 2 0;
#X connect 3 0 7 0;
#X connect 5 0 3 0;
#X connect 6 0 1 1;
#X connect 7 0 2 0;
#X connect 8 0 4 0;
#X connect 8 0 18 0;
#X connect 9 0 10 0;
#X connect 9 1 11 1;
#X connect 10 0 11 0;
#X connect 11 0 8 0;
#X connect 12 0 14 0;
#X connect 13 0 3 1;
#X connect 15 0 19 0;
#X connect 16 0 9 0;
#X connect 17 0 7 1;
#X connect 19 0 6 0;
#X connect 20 0 1 0;
