#N canvas 827 239 527 327 12;
#X obj 30 240 delread~ reverb-\$0;
#X obj 30 208 inlet;
#X obj 30 96 inlet~;
#X obj 66 285 throw~ reverb-\$0;
#X obj 88 96 lop~ 2000;
#X obj 88 26 catch~ reverb-\$0;
#X obj 145 64 inlet;
#X obj 168 96 inlet;
#X obj 30 319 outlet~;
#X obj 30 152 delwrite~ reverb-\$0 1000;
#X obj 88 64 *~ 0.99;
#X connect 0 0 3 0;
#X connect 0 0 8 0;
#X connect 1 0 0 0;
#X connect 2 0 9 0;
#X connect 4 0 9 0;
#X connect 5 0 10 0;
#X connect 6 0 10 1;
#X connect 7 0 4 1;
#X connect 10 0 4 0;
