#N canvas 827 239 527 327 12;
#X obj 24 250 rev-part;
#X obj 71 227 r rev-lop-\$0;
#X obj 114 36 inlet;
#X obj 114 68 s rev-fb-\$0;
#X obj 55 206 r rev-fb-\$0;
#X obj 196 36 inlet;
#X obj 196 68 s rev-lop-\$0;
#X obj 24 33 inlet~;
#X obj 24 361 outlet~;
#X obj 24 68 s~ rev-in-\$0;
#X obj 24 184 r~ rev-in-\$0;
#X obj 158 250 rev-part;
#X obj 205 227 r rev-lop-\$0;
#X obj 189 206 r rev-fb-\$0;
#X obj 158 184 r~ rev-in-\$0;
#X obj 293 250 rev-part;
#X obj 340 227 r rev-lop-\$0;
#X obj 324 206 r rev-fb-\$0;
#X obj 293 184 r~ rev-in-\$0;
#X obj 427 250 rev-part;
#X obj 474 227 r rev-lop-\$0;
#X obj 458 206 r rev-fb-\$0;
#X obj 427 184 r~ rev-in-\$0;
#X obj 565 250 rev-part;
#X obj 612 227 r rev-lop-\$0;
#X obj 596 206 r rev-fb-\$0;
#X obj 565 184 r~ rev-in-\$0;
#X obj 699 250 rev-part;
#X obj 746 227 r rev-lop-\$0;
#X obj 730 206 r rev-fb-\$0;
#X obj 699 184 r~ rev-in-\$0;
#X obj 324 -99 loadbang;
#X obj 831 250 rev-part;
#X obj 878 227 r rev-lop-\$0;
#X obj 862 206 r rev-fb-\$0;
#X obj 831 184 r~ rev-in-\$0;
#X obj 965 250 rev-part;
#X obj 1012 227 r rev-lop-\$0;
#X obj 996 206 r rev-fb-\$0;
#X obj 965 184 r~ rev-in-\$0;
#X obj 1100 250 rev-part;
#X obj 1147 227 r rev-lop-\$0;
#X obj 1131 206 r rev-fb-\$0;
#X obj 1100 184 r~ rev-in-\$0;
#X obj 1234 250 rev-part;
#X obj 1281 227 r rev-lop-\$0;
#X obj 1265 206 r rev-fb-\$0;
#X obj 1234 184 r~ rev-in-\$0;
#X obj 1372 250 rev-part;
#X obj 1419 227 r rev-lop-\$0;
#X obj 1403 206 r rev-fb-\$0;
#X obj 1372 184 r~ rev-in-\$0;
#X obj 1506 250 rev-part;
#X obj 1553 227 r rev-lop-\$0;
#X obj 1537 206 r rev-fb-\$0;
#X obj 1506 184 r~ rev-in-\$0;
#X obj 24 324 /~ 12;
#X obj 324 100 unpack 0 0 0 0 0 0 0 0 0 0 0 0;
#X msg 862 -221 2 3 5 7 11 13 17 19 23 29 31 37 41 43 47 53 59 61 67 71 73 79 83 89 97 101 103 107 109 113 127 131 137 139 149 151 157 163 167 173 179 181 191 193 197 199 211 223 227 229 233 239 241 251 257 263 269 271 277 281 283 293 307 311 313 317 331 337 347 349 353 359 367 373 379 383 389 397 401 409 419 421 431 433 439 443 449 457 461 463 467 479 487 491 499 503 509 521 523 541 547 557 563 569 571 577 587 593 599 601 607 613 617 619 631 641 643 647 653 659 661 673 677 683 691 701 709 719 727 733 739 743 751 757 761 769 773 787 797 809 811 821 823 827 829 839 853 857 859 863 877 881 883 887 907 911 919 929 937 941 947 953 967 971 977 983 991 997;
#X obj 825 -38 list store;
#X msg 324 -67 29 31 37 41 43 47 53 59 61 67 71 73 79 83 89 97 101 103 107 109 113 127 131 137 139 149 151 157 163 167 173 179 181 191 193 197 199 211 223 227 229 233 239 241 251 257 263 269 271 277 281 283 293 307 311 313 317 331 337 347 349 353 359 367 373 379 383 389 397 401 409 419 421 431 433 439 443 449 457 461 463 467 479 487 491 499 503 509 521 523 541 547 557 563 569 571 577 587 593 599 601 607 613 617 619 631 641 643 647 653 659 661 673 677 683 691 701 709 719 727 733 739 743 751 757 761 769 773 787 797 809 811 821 823 827 829 839 853 857 859 863 877 881 883 887 907 911 919 929 937 941 947 953 967 971 977 983 991 997;
#X connect 0 0 56 0;
#X connect 1 0 0 3;
#X connect 2 0 3 0;
#X connect 4 0 0 2;
#X connect 5 0 6 0;
#X connect 7 0 9 0;
#X connect 10 0 0 0;
#X connect 11 0 56 0;
#X connect 12 0 11 3;
#X connect 13 0 11 2;
#X connect 14 0 11 0;
#X connect 15 0 56 0;
#X connect 16 0 15 3;
#X connect 17 0 15 2;
#X connect 18 0 15 0;
#X connect 19 0 56 0;
#X connect 20 0 19 3;
#X connect 21 0 19 2;
#X connect 22 0 19 0;
#X connect 23 0 56 0;
#X connect 24 0 23 3;
#X connect 25 0 23 2;
#X connect 26 0 23 0;
#X connect 27 0 56 0;
#X connect 28 0 27 3;
#X connect 29 0 27 2;
#X connect 30 0 27 0;
#X connect 31 0 60 0;
#X connect 32 0 56 0;
#X connect 33 0 32 3;
#X connect 34 0 32 2;
#X connect 35 0 32 0;
#X connect 36 0 56 0;
#X connect 37 0 36 3;
#X connect 38 0 36 2;
#X connect 39 0 36 0;
#X connect 40 0 56 0;
#X connect 41 0 40 3;
#X connect 42 0 40 2;
#X connect 43 0 40 0;
#X connect 44 0 56 0;
#X connect 45 0 44 3;
#X connect 46 0 44 2;
#X connect 47 0 44 0;
#X connect 48 0 56 0;
#X connect 49 0 48 3;
#X connect 50 0 48 2;
#X connect 51 0 48 0;
#X connect 52 0 56 0;
#X connect 53 0 52 3;
#X connect 54 0 52 2;
#X connect 55 0 52 0;
#X connect 56 0 8 0;
#X connect 57 0 0 1;
#X connect 57 1 11 1;
#X connect 57 2 15 1;
#X connect 57 3 19 1;
#X connect 57 4 23 1;
#X connect 57 5 27 1;
#X connect 57 6 32 1;
#X connect 57 7 36 1;
#X connect 57 8 40 1;
#X connect 57 9 44 1;
#X connect 57 10 48 1;
#X connect 57 11 52 1;
#X connect 58 0 59 1;
#X connect 60 0 57 0;
