#N canvas 827 239 527 327 12;
#X obj 221 250 inlet~;
#X obj 221 287 lop~;
#X obj 221 403 outlet~;
#X obj 221 313 lop~;
#X obj 221 339 lop~;
#X obj 221 365 lop~;
#X obj 279 313 * 4;
#X obj 279 269 inlet;
#X obj 332 269 f \$1;
#X obj 332 234 loadbang;
#X connect 0 0 1 0;
#X connect 1 0 3 0;
#X connect 3 0 4 0;
#X connect 4 0 5 0;
#X connect 5 0 2 0;
#X connect 6 0 1 1;
#X connect 6 0 3 1;
#X connect 6 0 4 1;
#X connect 6 0 5 1;
#X connect 7 0 6 0;
#X connect 8 0 6 0;
#X connect 9 0 8 0;
