#N canvas 827 239 527 327 12;
#X obj 86 208 bagmem;
#X obj 86 248 seqtolist;
#X obj 89 59 select 97 115 100 102 103;
#X msg 89 89 72;
#X msg 115 89 74;
#X msg 142 89 76;
#X msg 168 89 79;
#X msg 195 89 81;
#X obj 289 59 select 97 115 100 102 103;
#X msg 289 89 72;
#X msg 315 89 74;
#X msg 342 89 76;
#X msg 368 89 79;
#X msg 395 89 81;
#X obj 289 28 keyup;
#X obj 89 28 key;
#X msg 137 124 1;
#X msg 335 124 0;
#X obj 289 124 * 1;
#X obj 89 124 * 1;
#X obj 379 196 metro 500;
#X obj 395 246 bng 25 250 50 0 empty empty empty 17 7 0 10 #e4e4e4 #4d4d4d #373737;
#X obj 379 151 tgl 25 0 empty empty empty 17 7 0 10 #e4e4e4 #4d4d4d #373737 0 1;
#X obj 299 190 bng 25 250 50 0 empty empty empty 17 7 0 10 #e4e4e4 #4d4d4d #373737;
#X obj 269 335 keyspressed;
#X obj 588 40 key;
#X obj 588 69 select 32;
#X obj 588 102 s trig;
#X obj 168 143 r trig;
#X obj 387 335 int;
#X obj 456 335 + 1, f 5;
#X obj 387 295 r trig;
#X obj 387 385 mod;
#X obj 307 418 spigot;
#X obj 86 435 unpack f f f f f;
#X obj 86 605 route;
#X obj 86 518 pack f f;
#X msg 45 478 0;
#X msg 75 478 1;
#X msg 105 478 2;
#X msg 136 478 3;
#X msg 168 478 4;
#X obj 182 246 print seq;
#X obj 86 335 list split;
#X obj 86 730 s note;
#X obj 86 637 mtof;
#X obj 387 594 r note;
#X obj 411 627 bang;
#X obj 411 656 random 100;
#X obj 411 686 + 20;
#X obj 411 716 / 127;
#X obj 387 746 pack 0 0;
#X obj 387 780 poly 6 1;
#X obj 387 814 pack 0 0 0;
#X obj 387 844 route 1 2 3 4 5 6;
#X obj 387 964 ks-voice;
#X obj 471 964 ks-voice;
#X obj 556 964 ks-voice;
#X obj 640 964 ks-voice;
#X obj 726 964 ks-voice;
#X obj 810 964 ks-voice;
#X obj 663 550 s ks-div;
#X obj 728 550 s ks-filt;
#X obj 667 409 vsl 17 128 0 1 0 0 empty empty div 0 -9 0 10 #e4e4e4 #4d4d4d #373737 0 1;
#X obj 732 393 vsl 17 128 20 20000 1 0 empty empty filt 0 -9 0 10 #e4e4e4 #4d4d4d #373737 0 1;
#X obj 387 1137 dac~ 1 2;
#X obj 387 1035 *~ 1;
#X obj 387 1083 *~ 0.5;
#X obj 580 782 print note;
#X obj 178 661 * 0.5;
#X obj 875 148 keymap;
#X obj 874 252 print;
#X obj 875 102 tgl 21 0 empty empty empty 0 -11 0 12 #fcfcfc #000000 #000000 0 1;
#X connect 0 0 1 0;
#X connect 1 0 43 0;
#X connect 2 0 3 0;
#X connect 2 1 4 0;
#X connect 2 2 5 0;
#X connect 2 3 6 0;
#X connect 2 4 7 0;
#X connect 3 0 16 0;
#X connect 3 0 19 0;
#X connect 4 0 16 0;
#X connect 4 0 19 0;
#X connect 5 0 16 0;
#X connect 5 0 19 0;
#X connect 6 0 16 0;
#X connect 6 0 19 0;
#X connect 7 0 16 0;
#X connect 7 0 19 0;
#X connect 8 0 9 0;
#X connect 8 1 10 0;
#X connect 8 2 11 0;
#X connect 8 3 12 0;
#X connect 8 4 13 0;
#X connect 9 0 17 0;
#X connect 9 0 18 0;
#X connect 10 0 17 0;
#X connect 10 0 18 0;
#X connect 11 0 17 0;
#X connect 11 0 18 0;
#X connect 12 0 17 0;
#X connect 12 0 18 0;
#X connect 13 0 17 0;
#X connect 13 0 18 0;
#X connect 14 0 8 0;
#X connect 15 0 2 0;
#X connect 16 0 0 1;
#X connect 16 0 24 0;
#X connect 17 0 0 1;
#X connect 17 0 24 1;
#X connect 18 0 0 0;
#X connect 19 0 0 0;
#X connect 20 0 0 2;
#X connect 21 0 0 3;
#X connect 22 0 20 0;
#X connect 23 0 0 2;
#X connect 24 0 32 1;
#X connect 24 0 33 1;
#X connect 24 0 43 1;
#X connect 25 0 26 0;
#X connect 26 0 27 0;
#X connect 28 0 0 2;
#X connect 29 0 30 0;
#X connect 29 0 32 0;
#X connect 30 0 29 1;
#X connect 31 0 29 0;
#X connect 32 0 33 0;
#X connect 33 0 35 1;
#X connect 34 0 37 0;
#X connect 34 0 36 1;
#X connect 34 1 38 0;
#X connect 34 1 36 1;
#X connect 34 2 39 0;
#X connect 34 2 36 1;
#X connect 34 3 40 0;
#X connect 34 3 36 1;
#X connect 34 4 41 0;
#X connect 34 4 36 1;
#X connect 35 0 45 0;
#X connect 36 0 35 0;
#X connect 37 0 36 0;
#X connect 38 0 36 0;
#X connect 39 0 36 0;
#X connect 40 0 36 0;
#X connect 41 0 36 0;
#X connect 43 0 34 0;
#X connect 45 0 69 0;
#X connect 46 0 51 0;
#X connect 46 0 47 0;
#X connect 46 0 68 0;
#X connect 47 0 48 0;
#X connect 48 0 49 0;
#X connect 49 0 50 0;
#X connect 50 0 51 1;
#X connect 51 0 52 0;
#X connect 52 0 53 0;
#X connect 52 1 53 1;
#X connect 52 2 53 2;
#X connect 53 0 54 0;
#X connect 54 0 55 0;
#X connect 54 1 56 0;
#X connect 54 2 57 0;
#X connect 54 3 58 0;
#X connect 54 4 59 0;
#X connect 54 5 60 0;
#X connect 55 0 66 0;
#X connect 56 0 66 0;
#X connect 57 0 66 0;
#X connect 58 0 66 0;
#X connect 59 0 66 0;
#X connect 60 0 66 0;
#X connect 63 0 61 0;
#X connect 64 0 62 0;
#X connect 66 0 67 0;
#X connect 67 0 65 0;
#X connect 67 0 65 1;
#X connect 69 0 44 0;
#X connect 70 0 71 0;
#X connect 72 0 70 0;
