#N canvas 827 239 527 327 12;
#X obj 301 418 mod;
#X obj 301 478 spigot;
#X obj 86 418 unpack f f f f f;
#X obj 86 605 route;
#X obj 86 535 pack f f;
#X msg 47 478 0;
#X msg 89 478 1;
#X msg 127 478 2;
#X msg 168 478 3;
#X msg 209 478 4;
#X obj 86 730 s note;
#X obj 86 637 mtof;
#X obj 278 630 r note;
#X obj 302 663 bang;
#X obj 302 692 random 100;
#X obj 302 722 + 20;
#X obj 302 752 / 127;
#X obj 278 782 pack 0 0;
#X obj 278 816 poly 6 1;
#X obj 278 850 pack 0 0 0;
#X obj 278 880 route 1 2 3 4 5 6;
#X obj 278 1000 ks-voice;
#X obj 362 1000 ks-voice;
#X obj 447 1000 ks-voice;
#X obj 531 1000 ks-voice;
#X obj 617 1000 ks-voice;
#X obj 701 1000 ks-voice;
#X obj 278 1220 dac~ 1 2;
#X obj 278 1071 *~ 1;
#X obj 278 1096 *~ 0.5;
#X obj 86 679 * 0.5;
#X obj 86 365 mtonotelist;
#X obj 86 259 notein 0;
#X obj 86 300 pack f f;
#X obj 301 339 int;
#X obj 301 274 bang;
#X obj 429 274 bang;
#X obj 351 339 +;
#X msg 354 284 1;
#X obj 402 373 * -1;
#X obj 402 339 -;
#X obj 351 246 loadbang;
#X obj 301 176 rotary_encoder;
#X obj 679 480 adc~ 3 4 5 6;
#N canvas 733 172 450 300 quad-snapshot 0;
#X obj 679 519 msnapshot~ 50;
#X obj 679 493 inlet~;
#X obj 679 546 * -1.20482;
#X obj 679 573 + 1;
#X obj 679 626 int;
#X obj 679 653 / 100;
#X obj 679 680 change;
#X obj 679 707 outlet;
#X obj 893 545 msnapshot~ 50;
#X obj 893 519 inlet~;
#X obj 893 572 * -1.20482;
#X obj 893 599 + 1;
#X obj 893 626 * 100;
#X obj 893 652 int;
#X obj 893 679 / 100;
#X obj 893 706 change;
#X obj 893 733 outlet;
#X obj 964 582 msnapshot~ 50;
#X obj 964 556 inlet~;
#X obj 964 609 * -1.20482;
#X obj 964 636 + 1;
#X obj 964 663 * 100;
#X obj 964 689 int;
#X obj 964 716 / 100;
#X obj 964 743 change;
#X obj 964 770 outlet;
#X obj 1115 595 msnapshot~ 50;
#X obj 1115 569 inlet~;
#X obj 1115 622 * -1.20482;
#X obj 1115 649 + 1;
#X obj 1115 676 * 100;
#X obj 1115 702 int;
#X obj 1115 729 / 100;
#X obj 1115 756 change;
#X obj 1115 783 outlet;
#X obj 679 600 * 100;
#X connect 0 0 2 0;
#X connect 1 0 0 0;
#X connect 2 0 3 0;
#X connect 3 0 35 0;
#X connect 4 0 5 0;
#X connect 5 0 6 0;
#X connect 6 0 7 0;
#X connect 8 0 10 0;
#X connect 9 0 8 0;
#X connect 10 0 11 0;
#X connect 11 0 12 0;
#X connect 12 0 13 0;
#X connect 13 0 14 0;
#X connect 14 0 15 0;
#X connect 15 0 16 0;
#X connect 17 0 19 0;
#X connect 18 0 17 0;
#X connect 19 0 20 0;
#X connect 20 0 21 0;
#X connect 21 0 22 0;
#X connect 22 0 23 0;
#X connect 23 0 24 0;
#X connect 24 0 25 0;
#X connect 26 0 28 0;
#X connect 27 0 26 0;
#X connect 28 0 29 0;
#X connect 29 0 30 0;
#X connect 30 0 31 0;
#X connect 31 0 32 0;
#X connect 32 0 33 0;
#X connect 33 0 34 0;
#X connect 35 0 4 0;
#X restore 679 555 pd quad-snapshot;
#X obj 679 687 s karplus-decay;
#X obj 710 656 s karplus-filter;
#X obj 341 1149 reverb01;
#X obj 741 630 s rev01;
#X obj 773 605 s rev02;
#X obj 353 1071 r rev01;
#X obj 278 1187 *~ 1;
#X obj 45 447 t f f;
#X obj 86 447 t f f;
#X obj 127 447 t f f;
#X obj 168 447 t f f;
#X obj 209 447 t f f;
#X obj 341 1118 ping-pong-delay~;
#X obj 485 1156 reverb01;
#X obj 497 1078 r rev01;
#X obj 417 1071 r rev02;
#X obj 679 765 print decay;
#X obj 698 740 print filter;
#X obj 879 705 print rev;
#X obj 978 562 print delay;
#X connect 0 0 1 0;
#X connect 1 0 3 1;
#X connect 2 0 52 0;
#X connect 2 1 53 0;
#X connect 2 2 54 0;
#X connect 2 3 55 0;
#X connect 2 4 56 0;
#X connect 3 0 11 0;
#X connect 4 0 3 0;
#X connect 5 0 4 0;
#X connect 6 0 4 0;
#X connect 7 0 4 0;
#X connect 8 0 4 0;
#X connect 9 0 4 0;
#X connect 11 0 30 0;
#X connect 12 0 17 0;
#X connect 12 0 13 0;
#X connect 13 0 14 0;
#X connect 14 0 15 0;
#X connect 15 0 16 0;
#X connect 16 0 17 1;
#X connect 17 0 18 0;
#X connect 18 0 19 0;
#X connect 18 1 19 1;
#X connect 18 2 19 2;
#X connect 19 0 20 0;
#X connect 20 0 21 0;
#X connect 20 1 22 0;
#X connect 20 2 23 0;
#X connect 20 3 24 0;
#X connect 20 4 25 0;
#X connect 20 5 26 0;
#X connect 21 0 28 0;
#X connect 22 0 28 0;
#X connect 23 0 28 0;
#X connect 24 0 28 0;
#X connect 25 0 28 0;
#X connect 26 0 28 0;
#X connect 28 0 29 0;
#X connect 29 0 51 0;
#X connect 29 0 57 0;
#X connect 29 0 47 0;
#X connect 29 0 58 0;
#X connect 30 0 10 0;
#X connect 31 0 2 0;
#X connect 31 1 1 1;
#X connect 31 1 0 1;
#X connect 31 1 34 0;
#X connect 32 0 33 0;
#X connect 32 1 33 1;
#X connect 33 0 31 0;
#X connect 34 0 37 1;
#X connect 34 0 40 1;
#X connect 34 0 0 0;
#X connect 35 0 37 0;
#X connect 36 0 40 0;
#X connect 37 0 34 0;
#X connect 38 0 37 0;
#X connect 38 0 40 0;
#X connect 39 0 34 0;
#X connect 40 0 39 0;
#X connect 41 0 38 0;
#X connect 42 0 35 0;
#X connect 42 0 31 1;
#X connect 42 1 36 0;
#X connect 42 1 31 1;
#X connect 43 0 44 0;
#X connect 43 1 44 1;
#X connect 43 2 44 2;
#X connect 43 3 44 3;
#X connect 44 0 45 0;
#X connect 44 1 46 0;
#X connect 44 2 48 0;
#X connect 44 3 49 0;
#X connect 47 0 27 0;
#X connect 50 0 47 1;
#X connect 51 0 27 0;
#X connect 51 0 27 1;
#X connect 52 0 5 0;
#X connect 52 1 4 1;
#X connect 53 0 6 0;
#X connect 53 1 4 1;
#X connect 54 0 7 0;
#X connect 54 1 4 1;
#X connect 55 0 8 0;
#X connect 55 1 4 1;
#X connect 56 0 9 0;
#X connect 56 1 4 1;
#X connect 57 0 47 0;
#X connect 57 1 58 0;
#X connect 58 0 27 1;
#X connect 59 0 58 1;
#X connect 60 0 57 1;
