#N canvas 827 239 527 327 12;
#X obj 177 186 bag;
#X obj 235 238 pack;
#X obj 235 287 bag;
#X msg 254 206 1;
#X obj 132 287 pack;
#X msg 150 255 1;
#X msg 215 72 flush;
#X obj 215 101 t a a;
#X msg 307 72 clear, f 6;
#X obj 67 43 inlet;
#X obj 215 43 inlet;
#X obj 307 43 inlet;
#X obj 251 171 loadbang;
#X obj 135 43 inlet;
#X obj 147 228 loadbang;
#X obj 235 338 outlet;
#X connect 0 0 1 0;
#X connect 1 0 2 0;
#X connect 2 0 4 0;
#X connect 2 0 15 0;
#X connect 3 0 1 1;
#X connect 4 0 0 0;
#X connect 5 0 4 1;
#X connect 6 0 7 0;
#X connect 7 0 2 0;
#X connect 7 1 0 0;
#X connect 8 0 2 0;
#X connect 8 0 0 0;
#X connect 9 0 0 0;
#X connect 10 0 6 0;
#X connect 11 0 8 0;
#X connect 12 0 3 0;
#X connect 13 0 0 1;
#X connect 14 0 5 0;
