#N canvas 827 239 527 327 12;
#X obj 34 783 dac~;
#X obj 34 215 r note;
#X obj 58 248 bang;
#X obj 58 277 random 100;
#X obj 58 307 + 20;
#X obj 58 337 / 127;
#X obj 34 367 pack 0 0;
#X obj 34 401 poly 6 1;
#X obj 34 435 pack 0 0 0;
#X obj 34 465 route 1 2 3 4 5 6;
#X obj 29 167 s ks-div;
#X obj 94 167 s ks-filt;
#X obj 33 26 vsl 17 128 0 1 0 0 empty empty div 0 -9 0 10 #e4e4e4 #4d4d4d #373737 0 1;
#X obj 98 26 vsl 17 128 20 20000 1 0 empty empty filt 0 -9 0 10 #e4e4e4 #4d4d4d #373737 0 1;
#X obj 48 538 r ks-div;
#X obj 63 560 r ks-filt;
#X obj 132 538 r ks-div;
#X obj 147 560 r ks-filt;
#X obj 217 538 r ks-div;
#X obj 232 560 r ks-filt;
#X obj 301 538 r ks-div;
#X obj 316 560 r ks-filt;
#X obj 387 538 r ks-div;
#X obj 402 560 r ks-filt;
#X obj 471 538 r ks-div;
#X obj 486 560 r ks-filt;
#X obj 34 585 ks-voice;
#X obj 118 585 ks-voice;
#X obj 203 585 ks-voice;
#X obj 287 585 ks-voice;
#X obj 373 585 ks-voice;
#X obj 457 585 ks-voice;
#X obj 34 675 *~ 1;
#X connect 1 0 6 0;
#X connect 1 0 2 0;
#X connect 2 0 3 0;
#X connect 3 0 4 0;
#X connect 4 0 5 0;
#X connect 5 0 6 1;
#X connect 6 0 7 0;
#X connect 7 0 8 0;
#X connect 7 1 8 1;
#X connect 7 2 8 2;
#X connect 8 0 9 0;
#X connect 9 0 26 0;
#X connect 9 1 27 0;
#X connect 9 2 28 0;
#X connect 9 3 29 0;
#X connect 9 4 30 0;
#X connect 9 5 31 0;
#X connect 12 0 10 0;
#X connect 13 0 11 0;
#X connect 14 0 26 1;
#X connect 15 0 26 2;
#X connect 16 0 27 1;
#X connect 17 0 27 2;
#X connect 18 0 28 1;
#X connect 19 0 28 2;
#X connect 20 0 29 1;
#X connect 21 0 29 2;
#X connect 22 0 30 1;
#X connect 23 0 30 2;
#X connect 24 0 31 1;
#X connect 25 0 31 2;
#X connect 26 0 32 0;
#X connect 27 0 32 0;
#X connect 28 0 32 0;
#X connect 29 0 32 0;
#X connect 30 0 32 0;
#X connect 31 0 32 0;
#X connect 32 0 0 0;
#X connect 32 0 0 1;
