#N canvas 733 172 450 300 12;
#X obj 220 317 int;
#X obj 220 252 bang;
#X obj 348 252 bang;
#X obj 270 317 +;
#X msg 273 262 1;
#X obj 321 351 * -1;
#X obj 321 317 -;
#X obj 220 378 outlet;
#X obj 270 224 loadbang;
#X obj 220 144 unpack f f;
#X obj 220 113 inlet;
#X obj 220 185 select 0;
#X connect 0 0 3 1;
#X connect 0 0 6 1;
#X connect 0 0 7 0;
#X connect 1 0 3 0;
#X connect 2 0 6 0;
#X connect 3 0 0 0;
#X connect 4 0 3 0;
#X connect 4 0 6 0;
#X connect 5 0 0 0;
#X connect 6 0 5 0;
#X connect 8 0 4 0;
#X connect 9 1 11 0;
#X connect 10 0 9 0;
#X connect 11 0 2 0;
#X connect 11 1 1 0;
