#N canvas 827 239 527 327 12;
#X obj 89 175 *~;
#X obj 89 215 delwrite~ karplus1-\$0 1000;
#X obj 175 118 *~ 0.9;
#X obj 135 435 throw~ karplus1-\$0;
#X obj 175 84 catch~ karplus1-\$0;
#X obj 91 399 delread~ karplus1-\$0;
#X obj 91 302 t b f;
#X msg 64 334 1000;
#X obj 91 367 /;
#X obj 24 15 inlet;
#X obj 24 47 s note-\$0;
#X obj 100 15 r note-\$0;
#X obj 91 266 r note-\$0;
#X obj 91 482 outlet~;
#X obj 100 84 vline~;
#X obj 280 23 r karplus-decay;
#X obj 418 118 + 1.30103;
#X obj 418 84 * 3;
#X obj 418 8 r karplus-filter;
#X obj 406 215 pow;
#X msg 357 189 10;
#X obj 554 93 log 10;
#X msg 554 54 200;
#X obj 554 15 loadbang;
#X obj 642 93 log 10;
#X obj 642 15 loadbang;
#X msg 642 54 20000;
#X obj 554 139 -;
#X obj 313 101 * 0.99999;
#X msg 100 47 1 5 \, 0 20 10;
#X obj 24 84 noise~;
#X obj 24 150 *~ 0.8;
#X obj 175 150 4pole~, f 11;
#X obj 24 118 4pole~ 800;
#X connect 0 0 1 0;
#X connect 2 0 32 0;
#X connect 4 0 2 0;
#X connect 5 0 3 0;
#X connect 5 0 13 0;
#X connect 6 0 7 0;
#X connect 6 1 8 1;
#X connect 7 0 8 0;
#X connect 8 0 5 0;
#X connect 9 0 10 0;
#X connect 11 0 29 0;
#X connect 12 0 6 0;
#X connect 14 0 0 1;
#X connect 15 0 28 0;
#X connect 16 0 19 1;
#X connect 16 0 20 0;
#X connect 17 0 16 0;
#X connect 18 0 17 0;
#X connect 19 0 32 1;
#X connect 20 0 19 0;
#X connect 21 0 16 1;
#X connect 21 0 27 1;
#X connect 22 0 21 0;
#X connect 23 0 22 0;
#X connect 24 0 27 0;
#X connect 25 0 26 0;
#X connect 26 0 24 0;
#X connect 27 0 17 1;
#X connect 28 0 2 1;
#X connect 29 0 14 0;
#X connect 30 0 33 0;
#X connect 31 0 0 0;
#X connect 32 0 1 0;
#X connect 33 0 31 0;
