#N canvas 733 172 450 300 12;
#X obj 835 427 loadbang;
#X obj 679 523 snapshot~;
#X obj 679 480 inlet~;
#X obj 835 480 metro \$1;
#X obj 938 427 inlet;
#X obj 679 602 outlet;
#X obj 679 566 change;
#X connect 0 0 3 0;
#X connect 1 0 6 0;
#X connect 2 0 1 0;
#X connect 3 0 1 0;
#X connect 4 0 3 1;
#X connect 6 0 5 0;
