#N canvas 827 239 527 327 12;
#X obj 24 66 bagmem;
#X obj 24 108 seqtolist;
#X obj 24 25 inlet;
#X obj 68 25 inlet;
#X obj 126 66 keyspressed;
#X obj 24 159 list split;
#X obj 24 218 outlet;
#X obj 126 159 outlet;
#X connect 0 0 1 0;
#X connect 1 0 5 0;
#X connect 2 0 0 0;
#X connect 2 0 4 0;
#X connect 3 0 0 2;
#X connect 4 0 5 1;
#X connect 4 0 7 0;
#X connect 5 0 6 0;
