#N canvas 827 239 527 327 12;
#X obj 217 383 delwrite~ ping-\$0 2000;
#X obj 394 383 delwrite~ pong-\$0 2000;
#X obj 217 528 delread4~ ping-\$0;
#X obj 394 528 delread4~ ping-\$0;
#X obj 215 623 *~ 0.7;
#X obj 394 608 *~ 0.7;
#X obj 215 672 s~ ping-\$0;
#X obj 392 672 s~ pong-\$0;
#X obj 264 320 r~ ping-\$0;
#X obj 394 320 r~ pong-\$0;
#X obj 299 672 outlet~;
#X obj 485 672 outlet~;
#X obj 217 320 inlet~;
#X obj 215 578 4pole~ 10000;
#X obj 394 572 4pole~ 10000;
#X obj 310 405 inlet;
#X msg 217 475 500;
#X msg 352 475 400;
#X obj 310 435 t b f;
#X obj 219 502 *;
#X obj 352 502 *;
#X obj 508 631 *~;
#X msg 524 590 0;
#X msg 569 590 1;
#X obj 307 631 *~;
#X obj 522 557 < 0.02;
#X obj 578 557 >= 0.02;
#X connect 2 0 13 0;
#X connect 3 0 14 0;
#X connect 4 0 6 0;
#X connect 4 0 24 0;
#X connect 5 0 7 0;
#X connect 5 0 21 0;
#X connect 8 0 0 0;
#X connect 9 0 1 0;
#X connect 12 0 0 0;
#X connect 12 0 1 0;
#X connect 13 0 4 0;
#X connect 14 0 5 0;
#X connect 15 0 18 0;
#X connect 15 0 25 0;
#X connect 15 0 26 0;
#X connect 16 0 19 0;
#X connect 17 0 20 0;
#X connect 18 0 16 0;
#X connect 18 0 17 0;
#X connect 18 1 19 1;
#X connect 18 1 20 1;
#X connect 19 0 2 0;
#X connect 20 0 3 0;
#X connect 21 0 11 0;
#X connect 22 0 21 1;
#X connect 22 0 24 1;
#X connect 23 0 21 1;
#X connect 23 0 24 1;
#X connect 24 0 10 0;
#X connect 25 0 22 0;
#X connect 26 0 23 0;
