#N canvas 827 239 527 327 12;
#X obj 30 240 delread~ reverb-\$0;
#X obj 30 208 inlet;
#X obj 30 96 inlet~;
#X obj 66 285 throw~ reverb-\$0;
#X obj 88 96 lop~ 2000;
#X obj 88 7 catch~ reverb-\$0;
#X obj 156 35 inlet;
#X obj 30 319 outlet~;
#X obj 30 152 delwrite~ reverb-\$0 1000;
#X obj 88 64 *~ 0.99;
#X obj 379 125 + 1.30103;
#X obj 379 91 * 3;
#X obj 367 222 pow;
#X msg 318 196 10;
#X obj 515 100 log 10;
#X obj 515 22 loadbang;
#X obj 603 100 log 10;
#X obj 603 22 loadbang;
#X msg 603 61 20000;
#X obj 515 146 -;
#X obj 379 50 inlet;
#X msg 515 61 20;
#X obj 156 64 * 0.999;
#X connect 0 0 3 0;
#X connect 0 0 7 0;
#X connect 1 0 0 0;
#X connect 2 0 8 0;
#X connect 4 0 8 0;
#X connect 5 0 9 0;
#X connect 6 0 22 0;
#X connect 9 0 4 0;
#X connect 10 0 12 1;
#X connect 10 0 13 0;
#X connect 11 0 10 0;
#X connect 12 0 4 1;
#X connect 13 0 12 0;
#X connect 14 0 10 1;
#X connect 14 0 19 1;
#X connect 15 0 21 0;
#X connect 16 0 19 0;
#X connect 17 0 18 0;
#X connect 18 0 16 0;
#X connect 19 0 11 1;
#X connect 20 0 11 0;
#X connect 21 0 14 0;
#X connect 22 0 9 1;
