#N canvas 827 239 527 327 12;
#X obj 633 98 loadbang;
#X obj 633 175 s bela_setDigital;
#X text 232 112 clock;
#X text 374 114 data;
#X obj 230 343 spigot;
#X obj 372 343 spigot;
#X msg 232 387 0;
#X msg 374 393 0;
#X obj 230 287 == 1;
#X obj 285 287 == 0;
#X obj 372 287 == 1;
#X obj 437 287 == 0;
#X obj 230 241 int;
#X obj 230 182 bang;
#X obj 374 241 int;
#X obj 374 182 bang;
#X obj 230 468 outlet;
#X obj 372 468 outlet;
#X text 395 445 ccw;
#X text 252 445 cw;
#X obj 230 211 delay 1;
#X obj 374 211 delay 1;
#X msg 633 138 in 18 \, in 21;
#X obj 230 138 r bela_digitalIn18;
#X obj 374 138 r bela_digitalIn21;
#X connect 0 0 22 0;
#X connect 4 0 6 0;
#X connect 5 0 7 0;
#X connect 6 0 5 1;
#X connect 6 0 16 0;
#X connect 7 0 4 1;
#X connect 7 0 17 0;
#X connect 8 0 4 0;
#X connect 9 0 4 1;
#X connect 10 0 5 0;
#X connect 11 0 5 1;
#X connect 12 0 8 0;
#X connect 12 0 9 0;
#X connect 13 0 20 0;
#X connect 14 0 10 0;
#X connect 14 0 11 0;
#X connect 15 0 21 0;
#X connect 20 0 12 0;
#X connect 21 0 14 0;
#X connect 22 0 1 0;
#X connect 23 0 13 0;
#X connect 23 0 12 1;
#X connect 24 0 15 0;
#X connect 24 0 14 1;
