#N canvas 827 239 527 327 12;
#X obj 671 538 list store;
#X obj 671 394 pack s f;
#X obj 671 427 list trim;
#X obj 557 453 bang;
#X obj 708 508 bang;
#X obj 557 515 bang;
#X msg 487 484 clear;
#X obj 728 318 loadbang;
#X obj 671 607 outlet;
#X msg 728 350 append;
#X obj 670 309 inlet;
#X obj 557 484 pipe 2;
#X obj 708 478 pipe 2;
#X obj 670 350 t b f;
#X connect 0 0 8 0;
#X connect 1 0 2 0;
#X connect 2 0 0 0;
#X connect 2 0 3 0;
#X connect 3 0 11 0;
#X connect 4 0 0 1;
#X connect 5 0 0 0;
#X connect 6 0 11 0;
#X connect 7 0 9 0;
#X connect 9 0 1 0;
#X connect 10 0 13 0;
#X connect 11 0 5 0;
#X connect 11 0 6 0;
#X connect 11 0 12 0;
#X connect 12 0 4 0;
#X connect 13 0 1 0;
#X connect 13 1 1 1;
