#N canvas 320 98 691 697 12;
#X msg 337 112 bang;
#X obj 324 22 inlet;
#X obj 393 211 ar-env;
#X obj 303 300 hip~ 7000;
#X obj 303 246 *~;
#N canvas 733 172 450 300 rand-square 0;
#X obj 117 242 phasor~;
#X obj 117 321 outlet~;
#X obj 117 205 *~;
#X obj 117 280 expr~ if($v1 > 0.5 \, 0 \, 1);
#X msg 88 141 40;
#X obj 129 161 inlet;
#X obj 88 105 loadbang;
#X connect 0 0 3 0;
#X connect 2 0 0 0;
#X connect 3 0 1 0;
#X connect 4 0 2 0;
#X connect 5 0 2 1;
#X connect 6 0 4 0;
#X restore 113 145 pd rand-square;
#X obj 113 77 loadbang;
#N canvas 733 172 450 300 rand-square 0;
#X obj 117 242 phasor~;
#X obj 117 321 outlet~;
#X obj 117 205 *~;
#X obj 117 280 expr~ if($v1 > 0.5 \, 0 \, 1);
#X msg 88 141 40;
#X obj 129 161 inlet;
#X obj 88 105 loadbang;
#X connect 0 0 3 0;
#X connect 2 0 0 0;
#X connect 3 0 1 0;
#X connect 4 0 2 0;
#X connect 5 0 2 1;
#X connect 6 0 4 0;
#X restore 6 145 pd rand-square;
#X obj 6 77 loadbang;
#N canvas 733 172 450 300 rand-square 0;
#X obj 117 242 phasor~;
#X obj 117 321 outlet~;
#X obj 117 205 *~;
#X obj 117 280 expr~ if($v1 > 0.5 \, 0 \, 1);
#X msg 88 141 40;
#X obj 129 161 inlet;
#X obj 88 105 loadbang;
#X connect 0 0 3 0;
#X connect 2 0 0 0;
#X connect 3 0 1 0;
#X connect 4 0 2 0;
#X connect 5 0 2 1;
#X connect 6 0 4 0;
#X restore 6 267 pd rand-square;
#X obj 6 184 loadbang;
#X msg 6 108 2;
#X msg 122 112 3;
#X obj 6 211 random 9;
#X obj 6 241 + 1;
#N canvas 733 172 450 300 rand-square 0;
#X obj 117 242 phasor~;
#X obj 117 321 outlet~;
#X obj 117 205 *~;
#X obj 117 280 expr~ if($v1 > 0.5 \, 0 \, 1);
#X msg 88 141 40;
#X obj 129 161 inlet;
#X obj 88 105 loadbang;
#X connect 0 0 3 0;
#X connect 2 0 0 0;
#X connect 3 0 1 0;
#X connect 4 0 2 0;
#X connect 5 0 2 1;
#X connect 6 0 4 0;
#X restore 122 267 pd rand-square;
#X obj 122 184 loadbang;
#X obj 122 211 random 9;
#X obj 122 241 + 1;
#N canvas 733 172 450 300 rand-square 0;
#X obj 117 242 phasor~;
#X obj 117 321 outlet~;
#X obj 117 205 *~;
#X obj 117 280 expr~ if($v1 > 0.5 \, 0 \, 1);
#X msg 88 141 40;
#X obj 129 161 inlet;
#X obj 88 105 loadbang;
#X connect 0 0 3 0;
#X connect 2 0 0 0;
#X connect 3 0 1 0;
#X connect 4 0 2 0;
#X connect 5 0 2 1;
#X connect 6 0 4 0;
#X restore 8 395 pd rand-square;
#X obj 8 312 loadbang;
#X obj 8 339 random 9;
#X obj 8 369 + 1;
#N canvas 733 172 450 300 rand-square 0;
#X obj 117 242 phasor~;
#X obj 117 321 outlet~;
#X obj 117 205 *~;
#X obj 117 280 expr~ if($v1 > 0.5 \, 0 \, 1);
#X msg 88 141 40;
#X obj 129 161 inlet;
#X obj 88 105 loadbang;
#X connect 0 0 3 0;
#X connect 2 0 0 0;
#X connect 3 0 1 0;
#X connect 4 0 2 0;
#X connect 5 0 2 1;
#X connect 6 0 4 0;
#X restore 131 395 pd rand-square;
#X obj 131 312 loadbang;
#X obj 131 339 random 9;
#X obj 131 369 + 1;
#N canvas 733 172 450 300 rand-square 0;
#X obj 117 242 phasor~;
#X obj 117 321 outlet~;
#X obj 117 205 *~;
#X obj 117 280 expr~ if($v1 > 0.5 \, 0 \, 1);
#X msg 88 141 40;
#X obj 129 161 inlet;
#X obj 88 105 loadbang;
#X connect 0 0 3 0;
#X connect 2 0 0 0;
#X connect 3 0 1 0;
#X connect 4 0 2 0;
#X connect 5 0 2 1;
#X connect 6 0 4 0;
#X restore 8 519 pd rand-square;
#X obj 8 436 loadbang;
#X obj 8 463 random 9;
#X obj 8 493 + 1;
#N canvas 733 172 450 300 rand-square 0;
#X obj 117 242 phasor~;
#X obj 117 321 outlet~;
#X obj 117 205 *~;
#X obj 117 280 expr~ if($v1 > 0.5 \, 0 \, 1);
#X msg 88 141 40;
#X obj 129 161 inlet;
#X obj 88 105 loadbang;
#X connect 0 0 3 0;
#X connect 2 0 0 0;
#X connect 3 0 1 0;
#X connect 4 0 2 0;
#X connect 5 0 2 1;
#X connect 6 0 4 0;
#X restore 131 519 pd rand-square;
#X obj 131 436 loadbang;
#X obj 131 463 random 9;
#X obj 131 493 + 1;
#X obj 428 22 inlet;
#X obj 479 22 inlet;
#X obj 303 346 outlet~;
#X connect 0 0 2 0;
#X connect 1 0 0 0;
#X connect 2 0 4 1;
#X connect 3 0 37 0;
#X connect 4 0 3 0;
#X connect 5 0 4 0;
#X connect 6 0 12 0;
#X connect 8 0 11 0;
#X connect 9 0 4 0;
#X connect 10 0 13 0;
#X connect 11 0 7 0;
#X connect 12 0 5 0;
#X connect 13 0 14 0;
#X connect 14 0 9 0;
#X connect 15 0 4 0;
#X connect 16 0 17 0;
#X connect 17 0 18 0;
#X connect 18 0 15 0;
#X connect 19 0 4 0;
#X connect 20 0 21 0;
#X connect 21 0 22 0;
#X connect 22 0 19 0;
#X connect 23 0 4 0;
#X connect 24 0 25 0;
#X connect 25 0 26 0;
#X connect 26 0 23 0;
#X connect 27 0 4 0;
#X connect 28 0 29 0;
#X connect 29 0 30 0;
#X connect 30 0 27 0;
#X connect 31 0 4 0;
#X connect 32 0 33 0;
#X connect 33 0 34 0;
#X connect 34 0 31 0;
#X connect 35 0 2 1;
#X connect 36 0 2 2;
