#N canvas 790 346 980 627 12;
#X msg 111 101 bang;
#X obj 98 11 inlet;
#X obj 167 200 ar-env;
#X obj 131 294 *~;
#X obj 39 200 *~;
#X obj 274 210 noise~;
#X obj 337 210 ar-env;
#X obj 278 294 *~;
#X obj 39 231 +~ 200;
#X obj 39 263 osc~;
#X msg 39 164 100;
#X obj 274 253 hip~ 500;
#X obj 164 389 outlet~;
#X obj 223 85 inlet;
#X obj 355 117 inlet;
#X obj 167 27 loadbang;
#X msg 167 72 0;
#X connect 0 0 2 0;
#X connect 0 0 6 0;
#X connect 1 0 0 0;
#X connect 2 0 3 1;
#X connect 2 0 4 1;
#X connect 3 0 12 0;
#X connect 4 0 8 0;
#X connect 5 0 11 0;
#X connect 6 0 7 1;
#X connect 7 0 12 0;
#X connect 8 0 9 0;
#X connect 9 0 3 0;
#X connect 10 0 4 0;
#X connect 11 0 7 0;
#X connect 13 0 2 2;
#X connect 14 0 6 2;
#X connect 15 0 16 0;
#X connect 16 0 2 1;
#X connect 16 0 6 1;
