#N canvas 827 239 527 327 12;
#X obj 191 38 tgl 21 0 empty empty empty 0 -11 0 12 #fcfcfc #000000 #000000 0 1;
#X obj 934 468 dac~;
#X msg 334 99 36;
#X obj 334 130 mtof;
#X msg 372 99 39;
#X msg 411 99 41;
#X msg 449 99 43;
#X msg 488 99 46;
#X obj 95 440 vsl 17 128 0 1000 0 0 empty empty gain 0 -9 0 10 #e4e4e4 #4d4d4d #373737 0 1;
#X obj 20 440 vsl 17 128 1 10 0 0 empty empty div 0 -9 0 10 #e4e4e4 #4d4d4d #373737 0 1;
#X obj 20 255 vsl 17 128 50 1500 0 0 empty empty amp-release 0 -9 0 10 #e4e4e4 #4d4d4d #373737 0 1;
#X obj 334 67 sel 0 1 2 3 4;
#X obj 174 440 vsl 17 128 50 1500 0 0 empty empty release 0 -9 0 10 #e4e4e4 #4d4d4d #373737 0 1;
#X obj 334 37 random 5;
#X obj 179 179 s clock;
#X obj 334 10 r clock;
#X obj 189 67 bpm-metro;
#X obj 241 10 loadbang;
#X obj 334 202 s note;
#X obj 386 440 vsl 17 128 0 1000 0 0 empty empty gain 0 -9 0 10 #e4e4e4 #4d4d4d #373737 0 1;
#X obj 318 440 vsl 17 128 1 10 0 0 empty empty div 0 -9 0 10 #e4e4e4 #4d4d4d #373737 0 1;
#X obj 464 440 vsl 17 128 50 1500 0 0 empty empty release 0 -9 0 10 #e4e4e4 #4d4d4d #373737 0 1;
#X obj 19 67 metro 100;
#X obj 93 67 random 600;
#X obj 93 93 + 50;
#X obj 21 34 tgl 21 0 empty empty empty 0 -11 0 12 #fcfcfc #000000 #000000 0 1;
#X obj 91 576 s op1-gain;
#X obj 382 575 s op2-gain;
#X msg 241 38 50;
#X obj 460 575 s op2-rel;
#X obj 170 575 s op1-rel;
#X obj 16 576 s op1-div;
#X obj 314 575 s op1-div;
#X obj 16 391 s amp-rel;
#X obj 95 635 vsl 17 128 0 1000 0 0 empty empty gain 0 -9 0 10 #e4e4e4 #4d4d4d #373737 0 1;
#X obj 20 635 vsl 17 128 1 10 0 0 empty empty div 0 -9 0 10 #e4e4e4 #4d4d4d #373737 0 1;
#X obj 174 635 vsl 17 128 50 1500 0 0 empty empty release 0 -9 0 10 #e4e4e4 #4d4d4d #373737 0 1;
#X obj 386 635 vsl 17 128 0 1000 0 0 empty empty gain 0 -9 0 10 #e4e4e4 #4d4d4d #373737 0 1;
#X obj 318 635 vsl 17 128 1 10 0 0 empty empty div 0 -9 0 10 #e4e4e4 #4d4d4d #373737 0 1;
#X obj 464 635 vsl 17 128 50 1500 0 0 empty empty release 0 -9 0 10 #e4e4e4 #4d4d4d #373737 0 1;
#X obj 16 771 s op3-div;
#X obj 91 770 s op3-gain;
#X obj 170 770 s op3-rel;
#X obj 460 770 s op4-rel;
#X obj 382 770 s op4-gain;
#X obj 314 770 s op4-div;
#N canvas 733 172 450 300 fm-voice 0;
#X obj 807 714 *~ 0.8;
#X obj 850 398 r op2-gain;
#X obj 867 420 r op2-rel;
#X obj 834 376 r op2-div;
#X obj 872 530 r op1-rel;
#X obj 855 506 r op1-gain;
#X obj 839 482 r op1-div;
#X obj 802 442 fm-op;
#X obj 807 554 fm-op;
#X obj 807 649 fm-op;
#X msg 842 623 1;
#X obj 872 623 r amp-rel;
#X obj 839 598 loadbang;
#X obj 913 233 fm-op;
#X obj 698 233 fm-op;
#X obj 730 167 r op4-div;
#X obj 746 189 r op4-gain;
#X obj 763 211 r op4-rel;
#X obj 945 167 r op3-div;
#X obj 961 189 r op3-gain;
#X obj 978 211 r op3-rel;
#X obj 802 310 +~;
#X obj 807 747 outlet~;
#X obj 574 46 inlet;
#X connect 0 0 22 0;
#X connect 1 0 7 3;
#X connect 2 0 7 4;
#X connect 3 0 7 2;
#X connect 4 0 8 4;
#X connect 5 0 8 3;
#X connect 6 0 8 2;
#X connect 7 0 8 1;
#X connect 8 0 9 1;
#X connect 9 0 0 0;
#X connect 10 0 9 2;
#X connect 10 0 9 3;
#X connect 11 0 9 4;
#X connect 12 0 10 0;
#X connect 13 0 21 1;
#X connect 14 0 21 0;
#X connect 15 0 14 2;
#X connect 16 0 14 3;
#X connect 17 0 14 4;
#X connect 18 0 13 2;
#X connect 19 0 13 3;
#X connect 20 0 13 4;
#X connect 21 0 7 1;
#X connect 23 0 14 0;
#X connect 23 0 13 0;
#X connect 23 0 7 0;
#X connect 23 0 8 0;
#X connect 23 0 9 0;
#X restore 643 367 pd fm-voice;
#N canvas 733 172 450 300 fm-voice 0;
#X obj 807 714 *~ 0.8;
#X obj 850 398 r op2-gain;
#X obj 867 420 r op2-rel;
#X obj 834 376 r op2-div;
#X obj 872 530 r op1-rel;
#X obj 855 506 r op1-gain;
#X obj 839 482 r op1-div;
#X obj 802 442 fm-op;
#X obj 807 554 fm-op;
#X obj 807 649 fm-op;
#X msg 842 623 1;
#X obj 872 623 r amp-rel;
#X obj 839 598 loadbang;
#X obj 913 233 fm-op;
#X obj 698 233 fm-op;
#X obj 730 167 r op4-div;
#X obj 746 189 r op4-gain;
#X obj 763 211 r op4-rel;
#X obj 945 167 r op3-div;
#X obj 961 189 r op3-gain;
#X obj 978 211 r op3-rel;
#X obj 802 310 +~;
#X obj 807 747 outlet~;
#X obj 574 46 inlet;
#X connect 0 0 22 0;
#X connect 1 0 7 3;
#X connect 2 0 7 4;
#X connect 3 0 7 2;
#X connect 4 0 8 4;
#X connect 5 0 8 3;
#X connect 6 0 8 2;
#X connect 7 0 8 1;
#X connect 8 0 9 1;
#X connect 9 0 0 0;
#X connect 10 0 9 2;
#X connect 10 0 9 3;
#X connect 11 0 9 4;
#X connect 12 0 10 0;
#X connect 13 0 21 1;
#X connect 14 0 21 0;
#X connect 15 0 14 2;
#X connect 16 0 14 3;
#X connect 17 0 14 4;
#X connect 18 0 13 2;
#X connect 19 0 13 3;
#X connect 20 0 13 4;
#X connect 21 0 7 1;
#X connect 23 0 14 0;
#X connect 23 0 13 0;
#X connect 23 0 7 0;
#X connect 23 0 8 0;
#X connect 23 0 9 0;
#X restore 740 367 pd fm-voice;
#X f 11;
#N canvas 733 172 450 300 fm-voice 0;
#X obj 807 714 *~ 0.8;
#X obj 850 398 r op2-gain;
#X obj 867 420 r op2-rel;
#X obj 834 376 r op2-div;
#X obj 872 530 r op1-rel;
#X obj 855 506 r op1-gain;
#X obj 839 482 r op1-div;
#X obj 802 442 fm-op;
#X obj 807 554 fm-op;
#X obj 807 649 fm-op;
#X msg 842 623 1;
#X obj 872 623 r amp-rel;
#X obj 839 598 loadbang;
#X obj 913 233 fm-op;
#X obj 698 233 fm-op;
#X obj 730 167 r op4-div;
#X obj 746 189 r op4-gain;
#X obj 763 211 r op4-rel;
#X obj 945 167 r op3-div;
#X obj 961 189 r op3-gain;
#X obj 978 211 r op3-rel;
#X obj 802 310 +~;
#X obj 807 747 outlet~;
#X obj 574 46 inlet;
#X connect 0 0 22 0;
#X connect 1 0 7 3;
#X connect 2 0 7 4;
#X connect 3 0 7 2;
#X connect 4 0 8 4;
#X connect 5 0 8 3;
#X connect 6 0 8 2;
#X connect 7 0 8 1;
#X connect 8 0 9 1;
#X connect 9 0 0 0;
#X connect 10 0 9 2;
#X connect 10 0 9 3;
#X connect 11 0 9 4;
#X connect 12 0 10 0;
#X connect 13 0 21 1;
#X connect 14 0 21 0;
#X connect 15 0 14 2;
#X connect 16 0 14 3;
#X connect 17 0 14 4;
#X connect 18 0 13 2;
#X connect 19 0 13 3;
#X connect 20 0 13 4;
#X connect 21 0 7 1;
#X connect 23 0 14 0;
#X connect 23 0 13 0;
#X connect 23 0 7 0;
#X connect 23 0 8 0;
#X connect 23 0 9 0;
#X restore 837 367 pd fm-voice;
#N canvas 733 172 450 300 fm-voice 0;
#X obj 807 714 *~ 0.8;
#X obj 850 398 r op2-gain;
#X obj 867 420 r op2-rel;
#X obj 834 376 r op2-div;
#X obj 872 530 r op1-rel;
#X obj 855 506 r op1-gain;
#X obj 839 482 r op1-div;
#X obj 802 442 fm-op;
#X obj 807 554 fm-op;
#X obj 807 649 fm-op;
#X msg 842 623 1;
#X obj 872 623 r amp-rel;
#X obj 839 598 loadbang;
#X obj 913 233 fm-op;
#X obj 698 233 fm-op;
#X obj 730 167 r op4-div;
#X obj 746 189 r op4-gain;
#X obj 763 211 r op4-rel;
#X obj 945 167 r op3-div;
#X obj 961 189 r op3-gain;
#X obj 978 211 r op3-rel;
#X obj 802 310 +~;
#X obj 807 747 outlet~;
#X obj 574 46 inlet;
#X connect 0 0 22 0;
#X connect 1 0 7 3;
#X connect 2 0 7 4;
#X connect 3 0 7 2;
#X connect 4 0 8 4;
#X connect 5 0 8 3;
#X connect 6 0 8 2;
#X connect 7 0 8 1;
#X connect 8 0 9 1;
#X connect 9 0 0 0;
#X connect 10 0 9 2;
#X connect 10 0 9 3;
#X connect 11 0 9 4;
#X connect 12 0 10 0;
#X connect 13 0 21 1;
#X connect 14 0 21 0;
#X connect 15 0 14 2;
#X connect 16 0 14 3;
#X connect 17 0 14 4;
#X connect 18 0 13 2;
#X connect 19 0 13 3;
#X connect 20 0 13 4;
#X connect 21 0 7 1;
#X connect 23 0 14 0;
#X connect 23 0 13 0;
#X connect 23 0 7 0;
#X connect 23 0 8 0;
#X connect 23 0 9 0;
#X restore 934 367 pd fm-voice;
#N canvas 733 172 450 300 fm-voice 0;
#X obj 807 714 *~ 0.8;
#X obj 850 398 r op2-gain;
#X obj 867 420 r op2-rel;
#X obj 834 376 r op2-div;
#X obj 872 530 r op1-rel;
#X obj 855 506 r op1-gain;
#X obj 839 482 r op1-div;
#X obj 802 442 fm-op;
#X obj 807 554 fm-op;
#X obj 807 649 fm-op;
#X msg 842 623 1;
#X obj 872 623 r amp-rel;
#X obj 839 598 loadbang;
#X obj 913 233 fm-op;
#X obj 698 233 fm-op;
#X obj 730 167 r op4-div;
#X obj 746 189 r op4-gain;
#X obj 763 211 r op4-rel;
#X obj 945 167 r op3-div;
#X obj 961 189 r op3-gain;
#X obj 978 211 r op3-rel;
#X obj 802 310 +~;
#X obj 807 747 outlet~;
#X obj 574 46 inlet;
#X connect 0 0 22 0;
#X connect 1 0 7 3;
#X connect 2 0 7 4;
#X connect 3 0 7 2;
#X connect 4 0 8 4;
#X connect 5 0 8 3;
#X connect 6 0 8 2;
#X connect 7 0 8 1;
#X connect 8 0 9 1;
#X connect 9 0 0 0;
#X connect 10 0 9 2;
#X connect 10 0 9 3;
#X connect 11 0 9 4;
#X connect 12 0 10 0;
#X connect 13 0 21 1;
#X connect 14 0 21 0;
#X connect 15 0 14 2;
#X connect 16 0 14 3;
#X connect 17 0 14 4;
#X connect 18 0 13 2;
#X connect 19 0 13 3;
#X connect 20 0 13 4;
#X connect 21 0 7 1;
#X connect 23 0 14 0;
#X connect 23 0 13 0;
#X connect 23 0 7 0;
#X connect 23 0 8 0;
#X connect 23 0 9 0;
#X restore 1031 367 pd fm-voice;
#N canvas 733 172 450 300 fm-voice 0;
#X obj 807 714 *~ 0.8;
#X obj 850 398 r op2-gain;
#X obj 867 420 r op2-rel;
#X obj 834 376 r op2-div;
#X obj 872 530 r op1-rel;
#X obj 855 506 r op1-gain;
#X obj 839 482 r op1-div;
#X obj 802 442 fm-op;
#X obj 807 554 fm-op;
#X obj 807 649 fm-op;
#X msg 842 623 1;
#X obj 872 623 r amp-rel;
#X obj 839 598 loadbang;
#X obj 913 233 fm-op;
#X obj 698 233 fm-op;
#X obj 730 167 r op4-div;
#X obj 746 189 r op4-gain;
#X obj 763 211 r op4-rel;
#X obj 945 167 r op3-div;
#X obj 961 189 r op3-gain;
#X obj 978 211 r op3-rel;
#X obj 802 310 +~;
#X obj 807 747 outlet~;
#X obj 574 46 inlet;
#X connect 0 0 22 0;
#X connect 1 0 7 3;
#X connect 2 0 7 4;
#X connect 3 0 7 2;
#X connect 4 0 8 4;
#X connect 5 0 8 3;
#X connect 6 0 8 2;
#X connect 7 0 8 1;
#X connect 8 0 9 1;
#X connect 9 0 0 0;
#X connect 10 0 9 2;
#X connect 10 0 9 3;
#X connect 11 0 9 4;
#X connect 12 0 10 0;
#X connect 13 0 21 1;
#X connect 14 0 21 0;
#X connect 15 0 14 2;
#X connect 16 0 14 3;
#X connect 17 0 14 4;
#X connect 18 0 13 2;
#X connect 19 0 13 3;
#X connect 20 0 13 4;
#X connect 21 0 7 1;
#X connect 23 0 14 0;
#X connect 23 0 13 0;
#X connect 23 0 7 0;
#X connect 23 0 8 0;
#X connect 23 0 9 0;
#X restore 1128 367 pd fm-voice;
#N canvas 733 172 450 300 fm-voice 0;
#X obj 807 714 *~ 0.8;
#X obj 850 398 r op2-gain;
#X obj 867 420 r op2-rel;
#X obj 834 376 r op2-div;
#X obj 872 530 r op1-rel;
#X obj 855 506 r op1-gain;
#X obj 839 482 r op1-div;
#X obj 802 442 fm-op;
#X obj 807 554 fm-op;
#X obj 807 649 fm-op;
#X msg 842 623 1;
#X obj 872 623 r amp-rel;
#X obj 839 598 loadbang;
#X obj 913 233 fm-op;
#X obj 698 233 fm-op;
#X obj 730 167 r op4-div;
#X obj 746 189 r op4-gain;
#X obj 763 211 r op4-rel;
#X obj 945 167 r op3-div;
#X obj 961 189 r op3-gain;
#X obj 978 211 r op3-rel;
#X obj 802 310 +~;
#X obj 807 747 outlet~;
#X obj 574 46 inlet;
#X connect 0 0 22 0;
#X connect 1 0 7 3;
#X connect 2 0 7 4;
#X connect 3 0 7 2;
#X connect 4 0 8 4;
#X connect 5 0 8 3;
#X connect 6 0 8 2;
#X connect 7 0 8 1;
#X connect 8 0 9 1;
#X connect 9 0 0 0;
#X connect 10 0 9 2;
#X connect 10 0 9 3;
#X connect 11 0 9 4;
#X connect 12 0 10 0;
#X connect 13 0 21 1;
#X connect 14 0 21 0;
#X connect 15 0 14 2;
#X connect 16 0 14 3;
#X connect 17 0 14 4;
#X connect 18 0 13 2;
#X connect 19 0 13 3;
#X connect 20 0 13 4;
#X connect 21 0 7 1;
#X connect 23 0 14 0;
#X connect 23 0 13 0;
#X connect 23 0 7 0;
#X connect 23 0 8 0;
#X connect 23 0 9 0;
#X restore 1226 367 pd fm-voice;
#X obj 644 67 r note;
#X obj 668 100 bang;
#X obj 668 129 random 100;
#X obj 668 159 + 20;
#X obj 668 189 / 127;
#X obj 644 219 pack 0 0;
#X obj 644 253 poly 6 1;
#X obj 644 287 pack 0 0 0;
#X obj 644 317 route 1 2 3 4 5 6;
#X obj 334 165 * 4;
#X obj 934 432 *~ 1;
#X obj 876 226 print;
#X connect 0 0 16 0;
#X connect 2 0 3 0;
#X connect 3 0 62 0;
#X connect 4 0 3 0;
#X connect 5 0 3 0;
#X connect 6 0 3 0;
#X connect 7 0 3 0;
#X connect 8 0 26 0;
#X connect 9 0 31 0;
#X connect 10 0 33 0;
#X connect 11 0 2 0;
#X connect 11 1 4 0;
#X connect 11 2 5 0;
#X connect 11 3 6 0;
#X connect 11 4 7 0;
#X connect 12 0 30 0;
#X connect 13 0 11 0;
#X connect 15 0 13 0;
#X connect 16 0 14 0;
#X connect 17 0 28 0;
#X connect 19 0 27 0;
#X connect 20 0 32 0;
#X connect 21 0 29 0;
#X connect 22 0 23 0;
#X connect 22 0 14 0;
#X connect 23 0 24 0;
#X connect 24 0 22 1;
#X connect 25 0 22 0;
#X connect 28 0 16 1;
#X connect 34 0 41 0;
#X connect 35 0 40 0;
#X connect 36 0 42 0;
#X connect 37 0 44 0;
#X connect 38 0 45 0;
#X connect 39 0 43 0;
#X connect 46 0 63 0;
#X connect 47 0 63 0;
#X connect 48 0 63 0;
#X connect 49 0 63 0;
#X connect 50 0 63 0;
#X connect 51 0 63 0;
#X connect 52 0 63 0;
#X connect 53 0 58 0;
#X connect 53 0 54 0;
#X connect 54 0 55 0;
#X connect 55 0 56 0;
#X connect 56 0 57 0;
#X connect 57 0 58 1;
#X connect 58 0 59 0;
#X connect 58 0 64 0;
#X connect 59 0 60 0;
#X connect 59 1 60 1;
#X connect 59 2 60 2;
#X connect 60 0 61 0;
#X connect 61 0 46 0;
#X connect 61 1 47 0;
#X connect 61 2 48 0;
#X connect 61 3 49 0;
#X connect 61 4 50 0;
#X connect 61 5 51 0;
#X connect 61 6 52 0;
#X connect 62 0 18 0;
#X connect 63 0 1 0;
#X connect 63 0 1 1;
