#N canvas 964 78 891 786 12;
#X msg 279 119 bang;
#X obj 266 29 inlet;
#X obj 335 218 ar-env;
#X obj 245 253 *~;
#X obj 489 339 osc~;
#X obj 489 284 *~;
#X obj 586 304 phasor~;
#X msg 489 233 500;
#X obj 601 233 *~ 2;
#X obj 489 184 loadbang;
#X obj 229 339 lop~ 800;
#X obj 229 401 outlet~;
#X obj 351 89 inlet;
#X obj 396 89 inlet;
#X connect 0 0 2 0;
#X connect 1 0 0 0;
#X connect 2 0 3 1;
#X connect 3 0 10 0;
#X connect 4 0 3 0;
#X connect 5 0 4 0;
#X connect 6 0 5 1;
#X connect 7 0 5 0;
#X connect 7 0 8 0;
#X connect 8 0 6 0;
#X connect 9 0 7 0;
#X connect 10 0 11 0;
#X connect 12 0 2 1;
#X connect 13 0 2 2;
