#N canvas 827 239 527 327 12;
#X obj 14 104 tgl 50 0 empty empty empty 0 -11 0 12 #fcfcfc #000000 #000000 0 1;
#X floatatom 68 114 3 1 240 0 - - - 24;
#X obj 14 183 hradio 20 1 0 16 empty empty empty 0 -8 0 10 #e4e4e4 #4d4d4d #373737 0;
#N canvas 733 172 450 300 16step 0;
#X obj 577 185 metro;
#X obj 577 215 int;
#X obj 627 215 + 1;
#X obj 577 254 mod 16;
#X obj 577 49 inlet;
#X obj 720 100 inlet;
#X obj 577 442 outlet;
#X obj 598 143 expr (60 / $f1) * 250;
#X connect 0 0 1 0;
#X connect 1 0 2 0;
#X connect 1 0 3 0;
#X connect 2 0 1 1;
#X connect 3 0 6 0;
#X connect 4 0 0 0;
#X connect 5 0 7 0;
#X connect 7 0 0 1;
#X restore 14 158 pd 16step;
#X obj 495 401 kick;
#X obj 367 405 snare;
#X obj 222 403 hih;
#X obj 87 402 bell;
#X obj 610 181 tgl 25 1 empty empty empty 17 7 0 10 #585858 #ffffff #373737 1 1;
#X obj 639 181 tgl 26 1 empty empty empty 17 7 0 10 #e4e4e4 #4d4d4d #373737 1 1;
#X obj 668 181 tgl 25 1 empty empty empty 17 7 0 10 #e4e4e4 #4d4d4d #373737 1 1;
#X obj 696 181 tgl 26 1 empty empty empty 17 7 0 10 #e4e4e4 #4d4d4d #373737 1 1;
#X obj 724 181 tgl 25 1 empty empty empty 17 7 0 10 #585858 #ffffff #373737 1 1;
#X obj 753 181 tgl 26 1 empty empty empty 17 7 0 10 #e4e4e4 #4d4d4d #373737 1 1;
#X obj 782 181 tgl 25 1 empty empty empty 17 7 0 10 #e4e4e4 #4d4d4d #373737 1 1;
#X obj 810 181 tgl 26 1 empty empty empty 17 7 0 10 #e4e4e4 #4d4d4d #373737 1 1;
#X obj 839 181 tgl 25 1 empty empty empty 17 7 0 10 #585858 #ffffff #373737 1 1;
#X obj 868 181 tgl 26 1 empty empty empty 17 7 0 10 #e4e4e4 #4d4d4d #373737 1 1;
#X obj 897 181 tgl 25 1 empty empty empty 17 7 0 10 #e4e4e4 #4d4d4d #373737 1 1;
#X obj 925 181 tgl 26 1 empty empty empty 17 7 0 10 #e4e4e4 #4d4d4d #373737 1 1;
#X obj 954 181 tgl 25 1 empty empty empty 17 7 0 10 #585858 #ffffff #373737 1 1;
#X obj 983 181 tgl 26 1 empty empty empty 17 7 0 10 #e4e4e4 #4d4d4d #373737 1 1;
#X obj 1012 181 tgl 25 1 empty empty empty 17 7 0 10 #e4e4e4 #4d4d4d #373737 1 1;
#X obj 1040 181 tgl 26 1 empty empty empty 17 7 0 10 #e4e4e4 #4d4d4d #373737 1 1;
#X obj 610 114 tgl 25 1 empty empty empty 17 7 0 10 #585858 #ffffff #373737 0 1;
#X obj 638 114 tgl 26 1 empty empty empty 17 7 0 10 #e4e4e4 #4d4d4d #373737 0 1;
#X obj 667 114 tgl 25 1 empty empty empty 17 7 0 10 #e4e4e4 #4d4d4d #373737 0 1;
#X obj 695 114 tgl 26 1 empty empty empty 17 7 0 10 #e4e4e4 #4d4d4d #373737 1 1;
#X obj 724 114 tgl 25 1 empty empty empty 17 7 0 10 #585858 #ffffff #373737 0 1;
#X obj 752 114 tgl 26 1 empty empty empty 17 7 0 10 #e4e4e4 #4d4d4d #373737 0 1;
#X obj 782 114 tgl 25 1 empty empty empty 17 7 0 10 #e4e4e4 #4d4d4d #373737 0 1;
#X obj 810 114 tgl 26 1 empty empty empty 17 7 0 10 #e4e4e4 #4d4d4d #373737 1 1;
#X obj 839 114 tgl 25 1 empty empty empty 17 7 0 10 #585858 #ffffff #373737 0 1;
#X obj 867 114 tgl 26 1 empty empty empty 17 7 0 10 #e4e4e4 #4d4d4d #373737 0 1;
#X obj 897 114 tgl 25 1 empty empty empty 17 7 0 10 #e4e4e4 #4d4d4d #373737 1 1;
#X obj 925 114 tgl 26 1 empty empty empty 17 7 0 10 #e4e4e4 #4d4d4d #373737 0 1;
#X obj 954 114 tgl 25 1 empty empty empty 17 7 0 10 #585858 #ffffff #373737 0 1;
#X obj 982 114 tgl 26 1 empty empty empty 17 7 0 10 #e4e4e4 #4d4d4d #373737 0 1;
#X obj 1011 114 tgl 25 1 empty empty empty 17 7 0 10 #e4e4e4 #4d4d4d #373737 0 1;
#X obj 1040 114 tgl 26 1 empty empty empty 17 7 0 10 #e4e4e4 #4d4d4d #373737 0 1;
#X obj 610 300 tgl 25 1 empty empty empty 17 7 0 10 #585858 #ffffff #373737 0 1;
#X obj 639 300 tgl 26 1 empty empty empty 17 7 0 10 #e4e4e4 #4d4d4d #373737 0 1;
#X obj 668 300 tgl 25 1 empty empty empty 17 7 0 10 #e4e4e4 #4d4d4d #373737 0 1;
#X obj 697 300 tgl 26 1 empty empty empty 17 7 0 10 #e4e4e4 #4d4d4d #373737 0 1;
#X obj 726 300 tgl 25 1 empty empty empty 17 7 0 10 #585858 #ffffff #373737 1 1;
#X obj 755 300 tgl 26 1 empty empty empty 17 7 0 10 #e4e4e4 #4d4d4d #373737 0 1;
#X obj 784 300 tgl 25 1 empty empty empty 17 7 0 10 #e4e4e4 #4d4d4d #373737 0 1;
#X obj 813 300 tgl 26 1 empty empty empty 17 7 0 10 #e4e4e4 #4d4d4d #373737 0 1;
#X obj 843 300 tgl 25 1 empty empty empty 17 7 0 10 #585858 #ffffff #373737 0 1;
#X obj 871 300 tgl 26 1 empty empty empty 17 7 0 10 #e4e4e4 #4d4d4d #373737 0 1;
#X obj 901 300 tgl 25 1 empty empty empty 17 7 0 10 #e4e4e4 #4d4d4d #373737 0 1;
#X obj 929 300 tgl 26 1 empty empty empty 17 7 0 10 #e4e4e4 #4d4d4d #373737 0 1;
#X obj 959 300 tgl 25 1 empty empty empty 17 7 0 10 #585858 #ffffff #373737 1 1;
#X obj 987 300 tgl 26 1 empty empty empty 17 7 0 10 #e4e4e4 #4d4d4d #373737 0 1;
#X obj 1017 300 tgl 25 1 empty empty empty 17 7 0 10 #e4e4e4 #4d4d4d #373737 0 1;
#X obj 1046 300 tgl 26 1 empty empty empty 17 7 0 10 #e4e4e4 #4d4d4d #373737 0 1;
#X obj 610 418 tgl 25 1 empty empty empty 17 7 0 10 #585858 #ffffff #373737 1 1;
#X obj 638 418 tgl 26 1 empty empty empty 17 7 0 10 #e4e4e4 #4d4d4d #373737 0 1;
#X obj 668 418 tgl 25 1 empty empty empty 17 7 0 10 #e4e4e4 #4d4d4d #373737 0 1;
#X obj 696 418 tgl 26 1 empty empty empty 17 7 0 10 #e4e4e4 #4d4d4d #373737 0 1;
#X obj 726 418 tgl 25 1 empty empty empty 17 7 0 10 #585858 #ffffff #373737 1 1;
#X obj 754 418 tgl 26 1 empty empty empty 17 7 0 10 #e4e4e4 #4d4d4d #373737 0 1;
#X obj 784 418 tgl 25 1 empty empty empty 17 7 0 10 #e4e4e4 #4d4d4d #373737 0 1;
#X obj 812 418 tgl 26 1 empty empty empty 17 7 0 10 #e4e4e4 #4d4d4d #373737 0 1;
#X obj 841 418 tgl 25 1 empty empty empty 17 7 0 10 #585858 #ffffff #373737 1 1;
#X obj 870 418 tgl 26 1 empty empty empty 17 7 0 10 #e4e4e4 #4d4d4d #373737 0 1;
#X obj 899 418 tgl 25 1 empty empty empty 17 7 0 10 #e4e4e4 #4d4d4d #373737 0 1;
#X obj 928 418 tgl 26 1 empty empty empty 17 7 0 10 #e4e4e4 #4d4d4d #373737 0 1;
#X obj 957 418 tgl 25 1 empty empty empty 17 7 0 10 #585858 #ffffff #373737 1 1;
#X obj 986 418 tgl 26 1 empty empty empty 17 7 0 10 #e4e4e4 #4d4d4d #373737 0 1;
#X obj 1015 418 tgl 25 1 empty empty empty 17 7 0 10 #e4e4e4 #4d4d4d #373737 0 1;
#X obj 1044 418 tgl 26 1 empty empty empty 17 7 0 10 #e4e4e4 #4d4d4d #373737 0 1;
#X obj 238 259 vsl 18 128 0 500 0 1 empty empty a 0 -9 0 10 #e4e4e4 #4d4d4d #373737 0 1;
#X obj 264 259 vsl 17 128 0 500 0 1 empty empty r 0 -9 0 10 #e4e4e4 #4d4d4d #373737 919 1;
#X obj 20 552 *~;
#X obj 132 17 vsl 17 128 0 1 0 1 empty empty Master\ Volume 0 -9 0 10 #e4e4e4 #4d4d4d #373737 1272 1;
#X obj 20 581 dac~;
#X obj 513 257 vsl 18 128 0 500 0 1 empty empty a 0 -9 0 10 #e4e4e4 #4d4d4d #373737 275 1;
#X obj 541 257 vsl 17 128 0 500 0 1 empty empty r 0 -9 0 10 #e4e4e4 #4d4d4d #373737 1828 1;
#X obj 222 425 s~ hh;
#X obj 70 506 r~ hh;
#X obj 175 506 r~ kick;
#X obj 114 506 r~ snare;
#X obj 20 506 r~ bell;
#X obj 495 425 s~ kick;
#X obj 367 428 s~ snare;
#X obj 385 261 vsl 17 128 0 500 0 1 empty empty r 0 -9 0 10 #e4e4e4 #4d4d4d #373737 2826 1;
#X obj 411 261 vsl 17 128 0 500 0 1 empty empty r 0 -9 0 10 #e4e4e4 #4d4d4d #373737 4893 1;
#X obj 105 261 vsl 18 128 0 500 0 1 empty empty a 0 -9 0 10 #e4e4e4 #4d4d4d #373737 0 1;
#X obj 132 261 vsl 17 128 0 500 0 1 empty empty r 0 -9 0 10 #e4e4e4 #4d4d4d #373737 5797 1;
#X obj 87 425 s~ bell;
#X msg 68 85 120;
#X obj 14 207 s c;
#X obj 302 373 r snare-trig;
#X obj 166 373 r hh-trig;
#X obj 441 365 r kick-trig;
#X obj 26 369 r bell-trig;
#X obj 228 506 r mvol;
#X obj 128 152 s mvol;
#X msg 198 85 \; pd dsp \$1;
#X obj 198 23 loadbang;
#X obj 198 54 tgl 26 0 empty empty empty 17 7 0 10 #e4e4e4 #4d4d4d #373737 0 1;
#N canvas 733 172 450 300 bell-seq 0;
#N canvas 0 50 450 300 seq 0;
#X obj 488 174 inlet;
#X obj 488 236 sel 0;
#X obj 511 260 inlet;
#X obj 488 286 spigot;
#X obj 488 373 outlet;
#X obj 576 260 inlet;
#X obj 553 286 spigot;
#X obj 641 260 inlet;
#X obj 618 286 spigot;
#X obj 706 260 inlet;
#X obj 683 286 spigot;
#X obj 774 260 inlet;
#X obj 751 286 spigot;
#X obj 839 260 inlet;
#X obj 816 286 spigot;
#X obj 904 260 inlet;
#X obj 881 286 spigot;
#X obj 969 260 inlet;
#X obj 946 286 spigot;
#X obj 1036 260 inlet;
#X obj 1013 286 spigot;
#X obj 1101 260 inlet;
#X obj 1078 286 spigot;
#X obj 1166 260 inlet;
#X obj 1143 286 spigot;
#X obj 1231 260 inlet;
#X obj 1208 286 spigot;
#X obj 1293 260 inlet;
#X obj 1270 286 spigot;
#X obj 1358 260 inlet;
#X obj 1335 286 spigot;
#X obj 1423 260 inlet;
#X obj 1400 286 spigot;
#X obj 1488 260 inlet;
#X obj 1465 286 spigot;
#X obj 553 236 sel 1;
#X obj 618 236 sel 2;
#X obj 683 236 sel 3;
#X obj 751 236 sel 4;
#X obj 816 236 sel 5;
#X obj 881 236 sel 6;
#X obj 946 236 sel 7;
#X obj 1013 236 sel 8;
#X obj 1078 236 sel 9;
#X obj 1143 236 sel 10;
#X obj 1208 236 sel 11;
#X obj 1270 236 sel 12;
#X obj 1335 236 sel 13;
#X obj 1400 236 sel 14;
#X obj 1465 236 sel 15;
#X connect 0 0 1 0;
#X connect 0 0 35 0;
#X connect 0 0 36 0;
#X connect 0 0 37 0;
#X connect 0 0 38 0;
#X connect 0 0 39 0;
#X connect 0 0 40 0;
#X connect 0 0 41 0;
#X connect 0 0 42 0;
#X connect 0 0 43 0;
#X connect 0 0 44 0;
#X connect 0 0 45 0;
#X connect 0 0 46 0;
#X connect 0 0 47 0;
#X connect 0 0 48 0;
#X connect 0 0 49 0;
#X connect 1 0 3 0;
#X connect 2 0 3 1;
#X connect 3 0 4 0;
#X connect 5 0 6 1;
#X connect 6 0 4 0;
#X connect 7 0 8 1;
#X connect 8 0 4 0;
#X connect 9 0 10 1;
#X connect 10 0 4 0;
#X connect 11 0 12 1;
#X connect 12 0 4 0;
#X connect 13 0 14 1;
#X connect 14 0 4 0;
#X connect 15 0 16 1;
#X connect 16 0 4 0;
#X connect 17 0 18 1;
#X connect 18 0 4 0;
#X connect 19 0 20 1;
#X connect 20 0 4 0;
#X connect 21 0 22 1;
#X connect 22 0 4 0;
#X connect 23 0 24 1;
#X connect 24 0 4 0;
#X connect 25 0 26 1;
#X connect 26 0 4 0;
#X connect 27 0 28 1;
#X connect 28 0 4 0;
#X connect 29 0 30 1;
#X connect 30 0 4 0;
#X connect 31 0 32 1;
#X connect 32 0 4 0;
#X connect 33 0 34 1;
#X connect 34 0 4 0;
#X connect 35 0 6 0;
#X connect 36 0 8 0;
#X connect 37 0 10 0;
#X connect 38 0 12 0;
#X connect 39 0 14 0;
#X connect 40 0 16 0;
#X connect 41 0 18 0;
#X connect 42 0 20 0;
#X connect 43 0 22 0;
#X connect 44 0 24 0;
#X connect 45 0 26 0;
#X connect 46 0 28 0;
#X connect 47 0 30 0;
#X connect 48 0 32 0;
#X connect 49 0 34 0;
#X restore 640 96 pd seq;
#X obj 610 96 r c;
#X obj 640 117 s bell-trig;
#X obj 610 59 inlet;
#X obj 638 59 inlet;
#X obj 667 59 inlet;
#X obj 695 59 inlet;
#X obj 724 59 inlet;
#X obj 752 59 inlet;
#X obj 782 59 inlet;
#X obj 810 59 inlet;
#X obj 839 59 inlet;
#X obj 867 59 inlet;
#X obj 897 59 inlet;
#X obj 925 59 inlet;
#X obj 954 59 inlet;
#X obj 982 59 inlet;
#X obj 1011 59 inlet;
#X obj 1040 59 inlet;
#X connect 0 0 2 0;
#X connect 1 0 0 0;
#X connect 3 0 0 1;
#X connect 4 0 0 2;
#X connect 5 0 0 3;
#X connect 6 0 0 4;
#X connect 7 0 0 5;
#X connect 8 0 0 6;
#X connect 9 0 0 7;
#X connect 10 0 0 8;
#X connect 11 0 0 9;
#X connect 12 0 0 10;
#X connect 13 0 0 11;
#X connect 14 0 0 12;
#X connect 15 0 0 13;
#X connect 16 0 0 14;
#X connect 17 0 0 15;
#X connect 18 0 0 16;
#X restore 610 155 pd bell-seq;
#X obj 14 40 loadbang;
#N canvas 733 172 450 300 hh-seq 0;
#N canvas 0 50 450 300 seq 0;
#X obj 488 174 inlet;
#X obj 488 236 sel 0;
#X obj 511 260 inlet;
#X obj 488 286 spigot;
#X obj 488 373 outlet;
#X obj 576 260 inlet;
#X obj 553 286 spigot;
#X obj 641 260 inlet;
#X obj 618 286 spigot;
#X obj 706 260 inlet;
#X obj 683 286 spigot;
#X obj 774 260 inlet;
#X obj 751 286 spigot;
#X obj 839 260 inlet;
#X obj 816 286 spigot;
#X obj 904 260 inlet;
#X obj 881 286 spigot;
#X obj 969 260 inlet;
#X obj 946 286 spigot;
#X obj 1036 260 inlet;
#X obj 1013 286 spigot;
#X obj 1101 260 inlet;
#X obj 1078 286 spigot;
#X obj 1166 260 inlet;
#X obj 1143 286 spigot;
#X obj 1231 260 inlet;
#X obj 1208 286 spigot;
#X obj 1293 260 inlet;
#X obj 1270 286 spigot;
#X obj 1358 260 inlet;
#X obj 1335 286 spigot;
#X obj 1423 260 inlet;
#X obj 1400 286 spigot;
#X obj 1488 260 inlet;
#X obj 1465 286 spigot;
#X obj 553 236 sel 1;
#X obj 618 236 sel 2;
#X obj 683 236 sel 3;
#X obj 751 236 sel 4;
#X obj 816 236 sel 5;
#X obj 881 236 sel 6;
#X obj 946 236 sel 7;
#X obj 1013 236 sel 8;
#X obj 1078 236 sel 9;
#X obj 1143 236 sel 10;
#X obj 1208 236 sel 11;
#X obj 1270 236 sel 12;
#X obj 1335 236 sel 13;
#X obj 1400 236 sel 14;
#X obj 1465 236 sel 15;
#X connect 0 0 1 0;
#X connect 0 0 35 0;
#X connect 0 0 36 0;
#X connect 0 0 37 0;
#X connect 0 0 38 0;
#X connect 0 0 39 0;
#X connect 0 0 40 0;
#X connect 0 0 41 0;
#X connect 0 0 42 0;
#X connect 0 0 43 0;
#X connect 0 0 44 0;
#X connect 0 0 45 0;
#X connect 0 0 46 0;
#X connect 0 0 47 0;
#X connect 0 0 48 0;
#X connect 0 0 49 0;
#X connect 1 0 3 0;
#X connect 2 0 3 1;
#X connect 3 0 4 0;
#X connect 5 0 6 1;
#X connect 6 0 4 0;
#X connect 7 0 8 1;
#X connect 8 0 4 0;
#X connect 9 0 10 1;
#X connect 10 0 4 0;
#X connect 11 0 12 1;
#X connect 12 0 4 0;
#X connect 13 0 14 1;
#X connect 14 0 4 0;
#X connect 15 0 16 1;
#X connect 16 0 4 0;
#X connect 17 0 18 1;
#X connect 18 0 4 0;
#X connect 19 0 20 1;
#X connect 20 0 4 0;
#X connect 21 0 22 1;
#X connect 22 0 4 0;
#X connect 23 0 24 1;
#X connect 24 0 4 0;
#X connect 25 0 26 1;
#X connect 26 0 4 0;
#X connect 27 0 28 1;
#X connect 28 0 4 0;
#X connect 29 0 30 1;
#X connect 30 0 4 0;
#X connect 31 0 32 1;
#X connect 32 0 4 0;
#X connect 33 0 34 1;
#X connect 34 0 4 0;
#X connect 35 0 6 0;
#X connect 36 0 8 0;
#X connect 37 0 10 0;
#X connect 38 0 12 0;
#X connect 39 0 14 0;
#X connect 40 0 16 0;
#X connect 41 0 18 0;
#X connect 42 0 20 0;
#X connect 43 0 22 0;
#X connect 44 0 24 0;
#X connect 45 0 26 0;
#X connect 46 0 28 0;
#X connect 47 0 30 0;
#X connect 48 0 32 0;
#X connect 49 0 34 0;
#X restore 637 218 pd seq;
#X obj 610 218 r c;
#X obj 637 239 s hh-trig;
#X obj 610 181 inlet;
#X obj 639 181 inlet;
#X obj 668 181 inlet;
#X obj 696 181 inlet;
#X obj 724 181 inlet;
#X obj 753 181 inlet;
#X obj 782 181 inlet;
#X obj 810 181 inlet;
#X obj 839 181 inlet;
#X obj 868 181 inlet;
#X obj 897 181 inlet;
#X obj 925 181 inlet;
#X obj 954 181 inlet;
#X obj 983 181 inlet;
#X obj 1012 181 inlet;
#X obj 1040 181 inlet;
#X connect 0 0 2 0;
#X connect 1 0 0 0;
#X connect 3 0 0 1;
#X connect 4 0 0 2;
#X connect 5 0 0 3;
#X connect 6 0 0 4;
#X connect 7 0 0 5;
#X connect 8 0 0 6;
#X connect 9 0 0 7;
#X connect 10 0 0 8;
#X connect 11 0 0 9;
#X connect 12 0 0 10;
#X connect 13 0 0 11;
#X connect 14 0 0 12;
#X connect 15 0 0 13;
#X connect 16 0 0 14;
#X connect 17 0 0 15;
#X connect 18 0 0 16;
#X restore 610 221 pd hh-seq;
#N canvas 733 172 450 300 snare-seq 0;
#N canvas 0 50 450 300 seq 0;
#X obj 488 174 inlet;
#X obj 488 236 sel 0;
#X obj 511 260 inlet;
#X obj 488 286 spigot;
#X obj 488 373 outlet;
#X obj 576 260 inlet;
#X obj 553 286 spigot;
#X obj 641 260 inlet;
#X obj 618 286 spigot;
#X obj 706 260 inlet;
#X obj 683 286 spigot;
#X obj 774 260 inlet;
#X obj 751 286 spigot;
#X obj 839 260 inlet;
#X obj 816 286 spigot;
#X obj 904 260 inlet;
#X obj 881 286 spigot;
#X obj 969 260 inlet;
#X obj 946 286 spigot;
#X obj 1036 260 inlet;
#X obj 1013 286 spigot;
#X obj 1101 260 inlet;
#X obj 1078 286 spigot;
#X obj 1166 260 inlet;
#X obj 1143 286 spigot;
#X obj 1231 260 inlet;
#X obj 1208 286 spigot;
#X obj 1293 260 inlet;
#X obj 1270 286 spigot;
#X obj 1358 260 inlet;
#X obj 1335 286 spigot;
#X obj 1423 260 inlet;
#X obj 1400 286 spigot;
#X obj 1488 260 inlet;
#X obj 1465 286 spigot;
#X obj 553 236 sel 1;
#X obj 618 236 sel 2;
#X obj 683 236 sel 3;
#X obj 751 236 sel 4;
#X obj 816 236 sel 5;
#X obj 881 236 sel 6;
#X obj 946 236 sel 7;
#X obj 1013 236 sel 8;
#X obj 1078 236 sel 9;
#X obj 1143 236 sel 10;
#X obj 1208 236 sel 11;
#X obj 1270 236 sel 12;
#X obj 1335 236 sel 13;
#X obj 1400 236 sel 14;
#X obj 1465 236 sel 15;
#X connect 0 0 1 0;
#X connect 0 0 35 0;
#X connect 0 0 36 0;
#X connect 0 0 37 0;
#X connect 0 0 38 0;
#X connect 0 0 39 0;
#X connect 0 0 40 0;
#X connect 0 0 41 0;
#X connect 0 0 42 0;
#X connect 0 0 43 0;
#X connect 0 0 44 0;
#X connect 0 0 45 0;
#X connect 0 0 46 0;
#X connect 0 0 47 0;
#X connect 0 0 48 0;
#X connect 0 0 49 0;
#X connect 1 0 3 0;
#X connect 2 0 3 1;
#X connect 3 0 4 0;
#X connect 5 0 6 1;
#X connect 6 0 4 0;
#X connect 7 0 8 1;
#X connect 8 0 4 0;
#X connect 9 0 10 1;
#X connect 10 0 4 0;
#X connect 11 0 12 1;
#X connect 12 0 4 0;
#X connect 13 0 14 1;
#X connect 14 0 4 0;
#X connect 15 0 16 1;
#X connect 16 0 4 0;
#X connect 17 0 18 1;
#X connect 18 0 4 0;
#X connect 19 0 20 1;
#X connect 20 0 4 0;
#X connect 21 0 22 1;
#X connect 22 0 4 0;
#X connect 23 0 24 1;
#X connect 24 0 4 0;
#X connect 25 0 26 1;
#X connect 26 0 4 0;
#X connect 27 0 28 1;
#X connect 28 0 4 0;
#X connect 29 0 30 1;
#X connect 30 0 4 0;
#X connect 31 0 32 1;
#X connect 32 0 4 0;
#X connect 33 0 34 1;
#X connect 34 0 4 0;
#X connect 35 0 6 0;
#X connect 36 0 8 0;
#X connect 37 0 10 0;
#X connect 38 0 12 0;
#X connect 39 0 14 0;
#X connect 40 0 16 0;
#X connect 41 0 18 0;
#X connect 42 0 20 0;
#X connect 43 0 22 0;
#X connect 44 0 24 0;
#X connect 45 0 26 0;
#X connect 46 0 28 0;
#X connect 47 0 30 0;
#X connect 48 0 32 0;
#X connect 49 0 34 0;
#X restore 637 338 pd seq;
#X obj 610 338 r c;
#X obj 637 359 s snare-trig;
#X obj 610 300 inlet;
#X obj 639 300 inlet;
#X obj 668 300 inlet;
#X obj 697 300 inlet;
#X obj 726 300 inlet;
#X obj 755 300 inlet;
#X obj 784 300 inlet;
#X obj 813 300 inlet;
#X obj 843 300 inlet;
#X obj 871 300 inlet;
#X obj 901 300 inlet;
#X obj 929 300 inlet;
#X obj 959 300 inlet;
#X obj 987 300 inlet;
#X obj 1017 300 inlet;
#X obj 1046 300 inlet;
#X connect 0 0 2 0;
#X connect 1 0 0 0;
#X connect 3 0 0 1;
#X connect 4 0 0 2;
#X connect 5 0 0 3;
#X connect 6 0 0 4;
#X connect 7 0 0 5;
#X connect 8 0 0 6;
#X connect 9 0 0 7;
#X connect 10 0 0 8;
#X connect 11 0 0 9;
#X connect 12 0 0 10;
#X connect 13 0 0 11;
#X connect 14 0 0 12;
#X connect 15 0 0 13;
#X connect 16 0 0 14;
#X connect 17 0 0 15;
#X connect 18 0 0 16;
#X restore 610 344 pd snare-seq;
#N canvas 733 172 450 300 kick-seq 0;
#N canvas 0 50 450 300 seq 0;
#X obj 488 174 inlet;
#X obj 488 236 sel 0;
#X obj 511 260 inlet;
#X obj 488 286 spigot;
#X obj 488 373 outlet;
#X obj 576 260 inlet;
#X obj 553 286 spigot;
#X obj 641 260 inlet;
#X obj 618 286 spigot;
#X obj 706 260 inlet;
#X obj 683 286 spigot;
#X obj 774 260 inlet;
#X obj 751 286 spigot;
#X obj 839 260 inlet;
#X obj 816 286 spigot;
#X obj 904 260 inlet;
#X obj 881 286 spigot;
#X obj 969 260 inlet;
#X obj 946 286 spigot;
#X obj 1036 260 inlet;
#X obj 1013 286 spigot;
#X obj 1101 260 inlet;
#X obj 1078 286 spigot;
#X obj 1166 260 inlet;
#X obj 1143 286 spigot;
#X obj 1231 260 inlet;
#X obj 1208 286 spigot;
#X obj 1293 260 inlet;
#X obj 1270 286 spigot;
#X obj 1358 260 inlet;
#X obj 1335 286 spigot;
#X obj 1423 260 inlet;
#X obj 1400 286 spigot;
#X obj 1488 260 inlet;
#X obj 1465 286 spigot;
#X obj 553 236 sel 1;
#X obj 618 236 sel 2;
#X obj 683 236 sel 3;
#X obj 751 236 sel 4;
#X obj 816 236 sel 5;
#X obj 881 236 sel 6;
#X obj 946 236 sel 7;
#X obj 1013 236 sel 8;
#X obj 1078 236 sel 9;
#X obj 1143 236 sel 10;
#X obj 1208 236 sel 11;
#X obj 1270 236 sel 12;
#X obj 1335 236 sel 13;
#X obj 1400 236 sel 14;
#X obj 1465 236 sel 15;
#X connect 0 0 1 0;
#X connect 0 0 35 0;
#X connect 0 0 36 0;
#X connect 0 0 37 0;
#X connect 0 0 38 0;
#X connect 0 0 39 0;
#X connect 0 0 40 0;
#X connect 0 0 41 0;
#X connect 0 0 42 0;
#X connect 0 0 43 0;
#X connect 0 0 44 0;
#X connect 0 0 45 0;
#X connect 0 0 46 0;
#X connect 0 0 47 0;
#X connect 0 0 48 0;
#X connect 0 0 49 0;
#X connect 1 0 3 0;
#X connect 2 0 3 1;
#X connect 3 0 4 0;
#X connect 5 0 6 1;
#X connect 6 0 4 0;
#X connect 7 0 8 1;
#X connect 8 0 4 0;
#X connect 9 0 10 1;
#X connect 10 0 4 0;
#X connect 11 0 12 1;
#X connect 12 0 4 0;
#X connect 13 0 14 1;
#X connect 14 0 4 0;
#X connect 15 0 16 1;
#X connect 16 0 4 0;
#X connect 17 0 18 1;
#X connect 18 0 4 0;
#X connect 19 0 20 1;
#X connect 20 0 4 0;
#X connect 21 0 22 1;
#X connect 22 0 4 0;
#X connect 23 0 24 1;
#X connect 24 0 4 0;
#X connect 25 0 26 1;
#X connect 26 0 4 0;
#X connect 27 0 28 1;
#X connect 28 0 4 0;
#X connect 29 0 30 1;
#X connect 30 0 4 0;
#X connect 31 0 32 1;
#X connect 32 0 4 0;
#X connect 33 0 34 1;
#X connect 34 0 4 0;
#X connect 35 0 6 0;
#X connect 36 0 8 0;
#X connect 37 0 10 0;
#X connect 38 0 12 0;
#X connect 39 0 14 0;
#X connect 40 0 16 0;
#X connect 41 0 18 0;
#X connect 42 0 20 0;
#X connect 43 0 22 0;
#X connect 44 0 24 0;
#X connect 45 0 26 0;
#X connect 46 0 28 0;
#X connect 47 0 30 0;
#X connect 48 0 32 0;
#X connect 49 0 34 0;
#X restore 637 461 pd seq;
#X obj 610 461 r c;
#X obj 637 481 s kick-trig;
#X obj 610 418 inlet;
#X obj 638 418 inlet;
#X obj 668 418 inlet;
#X obj 696 418 inlet;
#X obj 726 418 inlet;
#X obj 754 418 inlet;
#X obj 784 418 inlet;
#X obj 812 418 inlet;
#X obj 841 418 inlet;
#X obj 870 418 inlet;
#X obj 899 418 inlet;
#X obj 928 418 inlet;
#X obj 957 418 inlet;
#X obj 986 418 inlet;
#X obj 1015 418 inlet;
#X obj 1044 418 inlet;
#X connect 0 0 2 0;
#X connect 1 0 0 0;
#X connect 3 0 0 1;
#X connect 4 0 0 2;
#X connect 5 0 0 3;
#X connect 6 0 0 4;
#X connect 7 0 0 5;
#X connect 8 0 0 6;
#X connect 9 0 0 7;
#X connect 10 0 0 8;
#X connect 11 0 0 9;
#X connect 12 0 0 10;
#X connect 13 0 0 11;
#X connect 14 0 0 12;
#X connect 15 0 0 13;
#X connect 16 0 0 14;
#X connect 17 0 0 15;
#X connect 18 0 0 16;
#X restore 610 461 pd kick-seq;
#X connect 0 0 3 0;
#X connect 1 0 3 1;
#X connect 2 0 92 0;
#X connect 3 0 2 0;
#X connect 4 0 84 0;
#X connect 5 0 85 0;
#X connect 6 0 79 0;
#X connect 7 0 90 0;
#X connect 8 0 104 0;
#X connect 9 0 104 1;
#X connect 10 0 104 2;
#X connect 11 0 104 3;
#X connect 12 0 104 4;
#X connect 13 0 104 5;
#X connect 14 0 104 6;
#X connect 15 0 104 7;
#X connect 16 0 104 8;
#X connect 17 0 104 9;
#X connect 18 0 104 10;
#X connect 19 0 104 11;
#X connect 20 0 104 12;
#X connect 21 0 104 13;
#X connect 22 0 104 14;
#X connect 23 0 104 15;
#X connect 24 0 102 0;
#X connect 25 0 102 1;
#X connect 26 0 102 2;
#X connect 27 0 102 3;
#X connect 28 0 102 4;
#X connect 29 0 102 5;
#X connect 30 0 102 6;
#X connect 31 0 102 7;
#X connect 32 0 102 8;
#X connect 33 0 102 9;
#X connect 34 0 102 10;
#X connect 35 0 102 11;
#X connect 36 0 102 12;
#X connect 37 0 102 13;
#X connect 38 0 102 14;
#X connect 39 0 102 15;
#X connect 40 0 105 0;
#X connect 41 0 105 1;
#X connect 42 0 105 2;
#X connect 43 0 105 3;
#X connect 44 0 105 4;
#X connect 45 0 105 5;
#X connect 46 0 105 6;
#X connect 47 0 105 7;
#X connect 48 0 105 8;
#X connect 49 0 105 9;
#X connect 50 0 105 10;
#X connect 51 0 105 11;
#X connect 52 0 105 12;
#X connect 53 0 105 13;
#X connect 54 0 105 14;
#X connect 55 0 105 15;
#X connect 56 0 106 0;
#X connect 57 0 106 1;
#X connect 58 0 106 2;
#X connect 59 0 106 3;
#X connect 60 0 106 4;
#X connect 61 0 106 5;
#X connect 62 0 106 6;
#X connect 63 0 106 7;
#X connect 64 0 106 8;
#X connect 65 0 106 9;
#X connect 66 0 106 10;
#X connect 67 0 106 11;
#X connect 68 0 106 12;
#X connect 69 0 106 13;
#X connect 70 0 106 14;
#X connect 71 0 106 15;
#X connect 72 0 6 1;
#X connect 73 0 6 2;
#X connect 74 0 76 0;
#X connect 74 0 76 1;
#X connect 75 0 98 0;
#X connect 77 0 4 1;
#X connect 78 0 4 2;
#X connect 80 0 74 0;
#X connect 81 0 74 0;
#X connect 82 0 74 0;
#X connect 83 0 74 0;
#X connect 86 0 5 1;
#X connect 87 0 5 2;
#X connect 88 0 7 1;
#X connect 89 0 7 2;
#X connect 91 0 1 0;
#X connect 93 0 5 0;
#X connect 94 0 6 0;
#X connect 95 0 4 0;
#X connect 96 0 7 0;
#X connect 97 0 74 1;
#X connect 100 0 101 0;
#X connect 101 0 99 0;
#X connect 103 0 0 0;
#X connect 103 0 91 0;
