#N canvas 179 111 1278 847 12;
#X obj 384 646 hip~ 15;
#X text 316 513 carrier;
#X obj 386 436 +~;
#X obj 384 370 osc~;
#X obj 389 618 *~ 0.2;
#X obj 737 101 bng 50 250 50 0 empty empty empty 0 -10 0 12 #fcfcfc #000000 #000000;
#X text 560 520 amplitude envelope;
#X obj 388 541 *~;
#X obj 386 405 *~;
#X obj 386 505 osc~;
#X obj 380 238 osc~;
#X obj 382 272 *~;
#X obj 383 303 +~;
#X obj 424 302 * 0.5;
#X text 543 394 modulation amount envelope 1;
#X text 299 373 modulator 1;
#X text 292 233 modulator 2;
#X text 564 255 modulation amount envelope 2;
#X msg 496 494 1 0 \, 0 200;
#X msg 612 107 \; pd dsp \$1 \;;
#X obj 521 259 vline~;
#X obj 496 399 vline~;
#X obj 502 522 vline~;
#X obj 349 105 mtof;
#X obj 479 302 hsl 162 19 10 2000 0 0 empty empty empty -2 -10 0 12 #fcfcfc #000000 #000000 0 1;
#X obj 442 437 hsl 162 19 10 2000 0 0 empty empty empty -2 -10 0 12 #fcfcfc #000000 #000000 0 1;
#X obj 348 135 t b f;
#X obj 362 70 hsl 162 19 0 127 0 0 empty empty empty -2 -10 0 12 #fcfcfc #000000 #000000 0 1;
#X obj 373 701 dac~;
#X msg 489 372 \$1 50;
#X msg 514 232 \$1 50;
#X obj 513 212 hsl 162 19 10 2000 0 0 empty empty empty -2 -10 0 12 #fcfcfc #000000 #000000 0 1;
#X obj 491 346 hsl 162 19 10 2000 0 0 empty empty empty -2 -10 0 12 #fcfcfc #000000 #000000 0 1;
#X obj 142 19 tgl 50 0 empty empty empty 0 -10 0 12 #fcfcfc #000000 #000000 0 1;
#X obj 130 138 sel 0 1 2 3 4;
#X msg 99 167 46;
#X msg 133 165 49;
#X msg 170 166 51;
#X msg 202 167 53;
#X msg 236 167 56;
#X obj 169 197 mtof;
#X obj 171 224 s note;
#X obj 139 83 metro 200;
#X obj 141 111 random 5;
#X obj 301 61 r note;
#X obj 423 277 r note;
#X obj 417 414 r note;
#X text 384 22 Frequency Modulation;
#X connect 0 0 28 0;
#X connect 0 0 28 1;
#X connect 2 0 9 0;
#X connect 3 0 8 0;
#X connect 4 0 0 0;
#X connect 5 0 31 0;
#X connect 5 0 32 0;
#X connect 5 0 18 0;
#X connect 7 0 4 0;
#X connect 8 0 2 0;
#X connect 9 0 7 0;
#X connect 10 0 11 0;
#X connect 11 0 12 0;
#X connect 12 0 3 0;
#X connect 13 0 12 1;
#X connect 18 0 22 0;
#X connect 20 0 11 1;
#X connect 21 0 8 1;
#X connect 22 0 7 1;
#X connect 23 0 26 0;
#X connect 24 0 13 0;
#X connect 25 0 2 1;
#X connect 26 0 5 0;
#X connect 26 1 10 0;
#X connect 27 0 23 0;
#X connect 29 0 21 0;
#X connect 30 0 20 0;
#X connect 31 0 30 0;
#X connect 32 0 29 0;
#X connect 33 0 42 0;
#X connect 34 0 35 0;
#X connect 34 1 36 0;
#X connect 34 2 37 0;
#X connect 34 3 38 0;
#X connect 34 4 39 0;
#X connect 35 0 40 0;
#X connect 36 0 40 0;
#X connect 37 0 40 0;
#X connect 38 0 40 0;
#X connect 39 0 40 0;
#X connect 40 0 41 0;
#X connect 42 0 43 0;
#X connect 43 0 34 0;
#X connect 44 0 26 0;
#X connect 45 0 13 0;
#X connect 46 0 2 1;
