#N canvas 39 215 696 623 12;
#X msg 446 109 bang;
#X obj 433 19 inlet;
#X obj 502 208 ar-env;
#X obj 466 282 *~;
#X obj 374 251 osc~ 100;
#X obj 374 217 *~;
#X msg 374 172 200;
#X obj 514 125 inlet;
#X obj 559 125 inlet;
#X obj 374 139 loadbang;
#X obj 466 330 outlet~;
#X connect 0 0 2 0;
#X connect 1 0 0 0;
#X connect 2 0 3 1;
#X connect 2 0 5 1;
#X connect 3 0 10 0;
#X connect 4 0 3 0;
#X connect 5 0 4 0;
#X connect 6 0 5 0;
#X connect 7 0 2 1;
#X connect 8 0 2 2;
#X connect 9 0 6 0;
